<!-- Generator: visioncortex VTracer 0.6.12 -->
<svg viewBox="0 0 821 210" version="1.1" xmlns="http://www.w3.org/2000/svg" width="821" height="210">
<path d="M0 0 C0.32 0.16 0.32 0.16 1.94 1 C2.6 1.32 3.26 1.65 3.95 1.98 C5.66 2.83 7.36 3.69 9.06 4.56 C9.39 4.73 9.39 4.73 11.06 5.56 C11.66 6.06 12.26 6.55 12.88 7.06 C15.3 8.73 17.17 9.16 20.06 9.56 C20.06 10.22 20.06 10.88 20.06 11.56 C43.9 25.17 43.9 25.17 51.06 27.56 C51.37 27.88 51.37 27.88 52.94 29.5 C55.28 31.78 57.02 32.43 60.06 33.56 C62.43 34.84 64.74 36.2 67.06 37.56 C67.72 37.89 68.38 38.22 69.06 38.56 C69.72 39.22 70.38 39.88 71.06 40.56 C72.73 41.23 74.39 41.9 76.06 42.56 C78.87 43.69 78.87 43.69 81.06 45.56 C81.71 48.5 81.45 50.48 81.06 53.56 C80.07 54.22 79.08 54.88 78.06 55.56 C78.06 55.89 78.06 56.22 78.06 56.56 C75.75 57.22 73.44 57.88 71.06 58.56 C71.06 59.22 71.06 59.88 71.06 60.56 C70.4 60.62 69.74 60.68 69.06 60.75 C64.87 61.88 61.64 64.15 58.06 66.56 C55.06 68.56 55.06 68.56 52.06 69.56 C51.78 69.74 51.78 69.74 50.38 70.62 C46.09 72.36 41.71 72.06 37.38 70.75 C34.87 69.46 32.48 68.01 30.06 66.56 C27.42 65.43 24.79 64.47 22.06 63.56 C22.06 62.9 22.06 62.24 22.06 61.56 C17.69 58.65 12.71 59.04 7.77 60.01 C5.85 60.49 3.96 61.02 2.06 61.56 C2.06 62.22 2.06 62.88 2.06 63.56 C1.18 63.5 0.29 63.44 -0.62 63.37 C-4.28 63.58 -5.99 64.48 -8.94 66.56 C-7.29 66.89 -5.64 67.22 -3.94 67.56 C-3.94 68.22 -3.94 68.88 -3.94 69.56 C-2.29 69.89 -0.64 70.22 1.06 70.56 C1.06 71.22 1.06 71.88 1.06 72.56 C2.67 73.38 4.27 74.19 5.88 75 C6.77 75.45 7.66 75.9 8.58 76.37 C11.06 77.56 11.06 77.56 14.06 78.56 C14.47 79.01 14.89 79.47 15.31 79.94 C17.9 82.34 20.79 83.26 24.06 84.56 C23.69 87 23.69 87 23.06 89.56 C21.06 90.56 21.06 90.56 18.06 91.56 C17.4 92.22 16.74 92.88 16.06 93.56 C15.07 93.89 14.08 94.22 13.06 94.56 C11.17 95.49 9.3 96.45 7.44 97.44 C6.46 97.95 5.47 98.46 4.46 98.99 C2.06 100.56 2.06 100.56 1.06 103.56 C0.19 103.66 -0.69 103.75 -1.59 103.85 C-5.24 104.63 -7.37 105.85 -10.44 107.94 C-13.42 109.93 -16.29 111.84 -19.56 113.31 C-21.94 114.56 -21.94 114.56 -22.94 117.56 C-23.37 117.63 -23.37 117.63 -25.56 118 C-27.72 118.36 -29.87 118.77 -32 119.25 C-35.34 119.6 -36.95 119.01 -39.94 117.56 C-40.43 117.4 -40.43 117.4 -42.94 116.56 C-43.94 115.56 -44.94 114.56 -45.94 113.56 C-46.43 113.4 -46.43 113.4 -48.94 112.56 C-51.56 111.43 -53.14 110.36 -55.25 108.37 C-57.94 106.56 -57.94 106.56 -61.44 106.62 C-64.78 107.52 -67.12 108.6 -69.94 110.56 C-69.75 113.44 -69.75 113.44 -68.94 116.56 C-66.56 117.87 -66.56 117.87 -63.94 118.56 C-62.95 118.89 -61.96 119.22 -60.94 119.56 C-60.94 119.89 -60.94 120.22 -60.94 120.56 C-59.29 120.89 -57.64 121.22 -55.94 121.56 C-55.94 122.22 -55.94 122.88 -55.94 123.56 C-54.5 124.38 -53.06 125.19 -51.62 126 C-51.22 126.22 -51.22 126.22 -49.2 127.37 C-46.94 128.56 -46.94 128.56 -43.94 129.56 C-42.57 130.36 -41.21 131.2 -39.88 132.06 C-37.91 133.32 -36.02 134.52 -33.94 135.56 C-31.94 136.89 -29.94 138.23 -27.94 139.56 C-27.3 139.88 -26.66 140.2 -26 140.53 C-23.88 141.59 -21.97 142.81 -20 144.12 C-16.99 146.03 -14.55 147.22 -10.94 147.56 C-10.61 148.55 -10.28 149.54 -9.94 150.56 C-9.01 150.66 -8.08 150.77 -7.12 150.87 C-3.94 151.56 -3.94 151.56 -2.53 153.09 C-0.94 154.56 -0.94 154.56 1.32 154.85 C2.12 154.82 2.93 154.78 3.75 154.75 C4.56 154.72 5.37 154.69 6.2 154.67 C6.81 154.63 7.43 154.6 8.06 154.56 C8.39 153.9 8.72 153.24 9.06 152.56 C10.01 152.42 10.96 152.27 11.94 152.12 C15.2 151.54 16.11 151.13 18.06 148.56 C18.39 147.9 18.72 147.24 19.06 146.56 C21.38 145.83 23.71 145.16 26.06 144.56 C26.06 143.9 26.06 143.24 26.06 142.56 C28.7 141.9 31.34 141.24 34.06 140.56 C34.06 139.9 34.06 139.24 34.06 138.56 C35.05 138.23 36.04 137.9 37.06 137.56 C38.42 136.59 39.76 135.6 41.06 134.56 C41.72 134.89 42.38 135.22 43.06 135.56 C43.39 134.57 43.72 133.58 44.06 132.56 C45.39 132.2 46.73 131.88 48.06 131.56 C49.09 130.88 50.12 130.2 51.19 129.5 C55.63 126.82 60.02 127.2 65.06 127.56 C65.06 128.22 65.06 128.88 65.06 129.56 C65.76 129.83 66.46 130.09 67.18 130.37 C68.09 130.72 69 131.07 69.94 131.44 C70.84 131.78 71.75 132.13 72.68 132.49 C75.24 133.64 76.57 135.02 78.44 137.06 C80.06 138.56 80.06 138.56 81.94 139.5 C84.77 140.91 86.81 142.31 89.06 144.56 C89.88 148.31 89.88 148.31 90.06 151.56 C89.55 151.81 89.03 152.06 88.5 152.31 C85.29 153.96 82.19 155.76 79.06 157.56 C79.06 158.22 79.06 158.88 79.06 159.56 C78.32 159.66 77.58 159.77 76.81 159.87 C73.87 160.61 72.38 161.65 70.06 163.56 C69.4 163.89 68.74 164.22 68.06 164.56 C68.06 165.22 68.06 165.88 68.06 166.56 C67.03 166.64 66 166.73 64.94 166.81 C60.74 167.62 58.49 169.09 55.06 171.56 C54.4 171.56 53.74 171.56 53.06 171.56 C53.06 172.55 53.06 173.54 53.06 174.56 C52.42 174.68 51.78 174.81 51.12 174.94 C50.44 175.14 49.76 175.35 49.06 175.56 C48.73 176.22 48.4 176.88 48.06 177.56 C47.38 177.68 46.7 177.81 46 177.94 C41.99 178.79 38.66 180.64 35.06 182.56 C35.06 183.22 35.06 183.88 35.06 184.56 C30.06 186.56 30.06 186.56 27.87 187.37 C24.21 188.92 20.82 190.84 17.38 192.81 C16.67 193.21 15.97 193.61 15.24 194.02 C13.84 194.82 12.43 195.63 11.03 196.43 C9.28 197.43 7.54 198.43 5.79 199.42 C4.89 199.94 3.99 200.46 3.06 201 C2.28 201.45 1.5 201.9 0.69 202.37 C0.15 202.76 -0.39 203.16 -0.94 203.56 C-0.94 204.22 -0.94 204.88 -0.94 205.56 C-9.8 205.97 -18.49 205.74 -25.81 200.12 C-27.94 198.56 -27.94 198.56 -29.94 197.56 C-31.94 196.56 -31.94 196.56 -33.94 195 C-35.94 193.56 -35.94 193.56 -37.88 193.12 C-39.94 192.56 -39.94 192.56 -42.09 190.82 C-45.43 188.17 -48.91 186 -52.56 183.81 C-53.23 183.4 -53.9 182.99 -54.59 182.56 C-59.58 179.56 -59.58 179.56 -62.94 179.56 C-65.94 177.56 -65.94 177.56 -68 175.81 C-78.6 167.69 -92.24 159.79 -104.94 155.56 C-106.31 154.27 -107.64 152.93 -108.94 151.56 C-109.63 151.01 -110.32 150.47 -111.03 149.91 C-113.64 146.69 -113.53 143.81 -113.5 139.84 C-113.51 139.47 -113.51 139.47 -113.52 137.59 C-113.53 136.03 -113.53 134.46 -113.51 132.9 C-113.5 130.5 -113.53 128.11 -113.57 125.71 C-113.57 124.19 -113.57 122.67 -113.57 121.15 C-113.58 120.43 -113.59 119.72 -113.61 118.98 C-113.57 116.96 -113.57 116.96 -112.94 113.56 C-110.4 111.59 -110.4 111.59 -107.94 110.56 C-108.26 110.15 -108.26 110.15 -109.88 108.06 C-114 102.74 -113.04 94.44 -112.78 88.04 C-112.76 87.27 -112.73 86.49 -112.7 85.69 C-112.62 83.23 -112.53 80.77 -112.44 78.31 C-112.32 75.06 -112.2 71.8 -112.09 68.54 C-112.06 67.8 -112.03 67.06 -112 66.3 C-111.89 62.83 -112.06 59.9 -112.94 56.56 C-111.23 52.78 -109.74 51.12 -105.94 49.56 C-103.19 48.06 -103.19 48.06 -100.94 46.56 C-100.94 45.9 -100.94 45.24 -100.94 44.56 C-99.95 44.4 -99.95 44.4 -94.94 43.56 C-94.61 42.57 -94.28 41.58 -93.94 40.56 C-92.06 39.94 -92.06 39.94 -89.94 39.56 C-86.94 38.56 -86.94 38.56 -85.06 37.12 C-82.94 35.56 -82.94 35.56 -80.25 34.56 C-79.49 34.23 -78.72 33.9 -77.94 33.56 C-77.61 32.57 -77.28 31.58 -76.94 30.56 C-76.05 30.48 -75.16 30.4 -74.25 30.31 C-70.49 29.46 -68.81 28.05 -65.94 25.56 C-64.95 25.23 -63.96 24.9 -62.94 24.56 C-61.5 23.63 -60.09 22.67 -58.69 21.69 C-54.86 19.08 -51.22 17.29 -46.94 15.56 C-44 14 -44 14 -41.94 12.56 C-41.94 11.9 -41.94 11.24 -41.94 10.56 C-36.94 8.56 -36.94 8.56 -34.6 7.67 C-31.79 6.5 -29.21 5.12 -26.56 3.62 C-17.38 -1.4 -10.04 -4.87 0 0 Z M-20.56 72.06 C-21.02 72.56 -21.47 73.05 -21.94 73.56 C-21.61 73.73 -21.61 73.73 -19.94 74.56 C-18.95 73.9 -17.96 73.24 -16.94 72.56 C-16.94 71.9 -16.94 71.24 -16.94 70.56 C-18.94 70.56 -18.94 70.56 -20.56 72.06 Z M-34.94 79.56 C-36.66 80.34 -36.66 80.34 -38.56 81.5 C-39.68 82.18 -40.79 82.86 -41.94 83.56 C-41.44 83.89 -41.44 83.89 -38.94 85.56 C-36.96 83.91 -34.98 82.26 -32.94 80.56 C-33.6 80.23 -34.26 79.9 -34.94 79.56 Z M-44.94 85.56 C-45.6 86.22 -46.26 86.88 -46.94 87.56 C-45.62 87.89 -44.3 88.22 -42.94 88.56 C-42.94 87.57 -42.94 86.58 -42.94 85.56 C-43.6 85.56 -44.26 85.56 -44.94 85.56 Z M22.06 85.56 C23.06 87.56 23.06 87.56 23.06 87.56 Z M-49.94 88.56 C-51.26 89.88 -52.58 91.2 -53.94 92.56 C-49.94 92.56 -49.94 92.56 -48.19 91.06 C-47.78 90.57 -47.36 90.07 -46.94 89.56 C-47.93 89.23 -48.92 88.9 -49.94 88.56 Z M-55.94 92.56 C-56.43 93.22 -56.43 93.22 -58.94 96.56 C-57.29 95.9 -55.64 95.24 -53.94 94.56 C-54.6 93.9 -55.26 93.24 -55.94 92.56 Z " fill="#0092F6" transform="translate(112.9375,3.439453125)"/>
<path d="M0 0 C0.33 6.93 0.66 13.86 1 21 C10 25 10 25 13 26 C13 26.33 13 26.66 13 27 C14.65 27.33 16.3 27.66 18 28 C18 28.66 18 29.32 18 30 C19.44 30.82 20.87 31.63 22.31 32.44 C23.11 32.89 23.91 33.34 24.74 33.81 C27 35 27 35 30 36 C31.37 36.8 32.73 37.64 34.06 38.5 C36.02 39.76 37.92 40.96 40 42 C42 43.33 44 44.67 46 46 C46.64 46.32 47.28 46.64 47.94 46.96 C50.06 48.03 51.96 49.25 53.94 50.56 C56.95 52.47 59.39 53.66 63 54 C63.33 54.99 63.66 55.98 64 57 C64.46 57.05 64.46 57.05 66.81 57.31 C70 58 70 58 71.41 59.53 C73 61 73 61 75.26 61.29 C75.66 61.28 75.66 61.28 77.69 61.19 C78.5 61.16 79.3 61.13 80.14 61.11 C80.44 61.09 80.44 61.09 82 61 C82.16 60.67 82.16 60.67 83 59 C83.95 58.86 84.9 58.71 85.88 58.56 C89.14 57.97 90.05 57.57 92 55 C92.33 54.34 92.66 53.68 93 53 C95.31 52.27 97.65 51.6 100 51 C100 50.34 100 49.68 100 49 C102.64 48.34 105.28 47.68 108 47 C108 46.34 108 45.68 108 45 C108.99 44.67 109.98 44.34 111 44 C112.36 43.03 113.69 42.04 115 41 C115.66 41.33 116.32 41.66 117 42 C117.33 41.01 117.66 40.02 118 39 C119.33 38.64 120.66 38.32 122 38 C122.52 37.66 122.52 37.66 125.12 35.94 C129.57 33.26 133.96 33.64 139 34 C139 34.66 139 35.32 139 36 C139.7 36.27 140.4 36.53 141.12 36.8 C142.03 37.16 142.94 37.51 143.88 37.88 C144.78 38.22 145.68 38.57 146.62 38.93 C149.17 40.08 150.5 41.46 152.38 43.5 C154 45 154 45 155.88 45.94 C158.71 47.35 160.75 48.75 163 51 C163.81 54.75 163.81 54.75 164 58 C163.48 58.25 162.97 58.5 162.44 58.75 C159.23 60.4 156.12 62.2 153 64 C153 64.66 153 65.32 153 66 C152.26 66.1 151.51 66.21 150.75 66.31 C147.8 67.05 146.31 68.09 144 70 C143.67 70.16 143.67 70.16 142 71 C142 71.66 142 72.32 142 73 C140.97 73.08 139.94 73.17 138.88 73.25 C134.68 74.06 132.43 75.53 129 78 C128.34 78 127.68 78 127 78 C127 78.99 127 79.98 127 81 C126.36 81.12 125.72 81.25 125.06 81.38 C124.38 81.58 123.7 81.79 123 82 C122.67 82.66 122.34 83.32 122 84 C121.32 84.12 120.64 84.25 119.94 84.38 C115.93 85.23 112.6 87.08 109 89 C109 89.66 109 90.32 109 91 C104 93 104 93 101.8 93.8 C98.15 95.36 94.76 97.28 91.31 99.25 C90.61 99.65 89.91 100.05 89.18 100.46 C87.77 101.26 86.37 102.07 84.96 102.87 C83.22 103.87 81.48 104.86 79.73 105.86 C78.83 106.38 77.93 106.9 77 107.44 C76.22 107.89 75.43 108.34 74.62 108.81 C74.09 109.2 73.55 109.59 73 110 C73 110.66 73 111.32 73 112 C64.14 112.4 55.45 112.18 48.12 106.56 C46 105 46 105 44 104 C42 103 42 103 40 101.44 C38 100 38 100 36.06 99.56 C34 99 34 99 31.85 97.26 C28.51 94.61 25.02 92.44 21.38 90.25 C21.04 90.04 21.04 90.04 19.35 89 C14.36 86 14.36 86 11 86 C8 84 8 84 5.94 82.25 C-4.67 74.13 -18.3 66.23 -31 62 C-32.38 60.71 -33.71 59.37 -35 58 C-35.69 57.46 -36.39 56.91 -37.1 56.35 C-39.73 53.09 -39.5 50.18 -39.39 46.17 C-39.38 45.42 -39.38 44.67 -39.37 43.9 C-39.35 41.52 -39.3 39.13 -39.25 36.75 C-39.23 35.13 -39.21 33.51 -39.2 31.89 C-39.15 27.93 -39.08 23.96 -39 20 C-35.99 18.42 -33.36 17.56 -30 17 C-29.67 16.01 -29.34 15.02 -29 14 C-26.95 12.68 -26.95 12.68 -24.25 11.31 C-20.94 9.59 -17.7 7.85 -14.55 5.83 C-13.98 5.47 -13.41 5.1 -12.82 4.72 C-11.19 3.67 -9.57 2.6 -7.95 1.54 C-5 0 -5 0 0 0 Z " fill="#0093F4" transform="translate(39,97)"/>
<path d="M0 0 C0.88 0 1.76 0 2.67 0 C3.16 0.01 3.16 0.01 5.63 0.02 C6.15 0.03 6.15 0.03 8.79 0.04 C12.45 0.05 16.11 0.08 19.77 0.11 C21.17 0.12 22.58 0.13 23.99 0.14 C32.55 0.21 41.12 0.29 49.69 0.4 C53.8 0.45 57.91 0.5 62.02 0.53 C66.07 0.57 70.12 0.62 74.16 0.67 C75.69 0.69 77.22 0.7 78.74 0.71 C80.86 0.73 82.97 0.76 85.08 0.79 C86.28 0.81 87.48 0.82 88.71 0.83 C91.77 1.11 91.77 1.11 95.77 3.11 C95.77 10.37 95.77 17.63 95.77 25.11 C91.44 27.28 88.29 27.42 83.6 27.43 C82.78 27.44 81.96 27.45 81.12 27.46 C78.41 27.49 75.71 27.51 73 27.52 C71.12 27.54 69.25 27.56 67.37 27.58 C62.43 27.63 57.49 27.67 52.55 27.71 C47.51 27.75 42.47 27.8 37.43 27.85 C27.54 27.95 17.65 28.03 7.77 28.11 C7.58 31.49 7.58 31.49 7.77 35.11 C11.19 37.39 12.49 37.38 16.52 37.43 C17.11 37.44 17.11 37.44 20.1 37.49 C20.74 37.5 20.74 37.5 23.97 37.52 C25.27 37.54 26.58 37.56 27.92 37.58 C31.39 37.63 34.86 37.67 38.32 37.71 C41.86 37.75 45.4 37.8 48.94 37.85 C55.88 37.95 62.82 38.03 69.77 38.11 C70.1 38.77 70.43 39.43 70.77 40.11 C72.45 40.78 74.17 41.37 75.89 41.92 C80.96 43.67 84.54 45.87 88.77 49.11 C89.43 49.11 90.09 49.11 90.77 49.11 C91.61 50.57 92.44 52.03 93.27 53.49 C93.5 53.89 93.5 53.89 94.67 55.95 C95.77 58.11 95.77 58.11 95.77 60.11 C96.43 60.11 97.09 60.11 97.77 60.11 C97.68 60.36 97.68 60.36 97.25 61.6 C96.7 64.44 96.78 67.12 96.88 70 C97.14 77.85 96.64 84.06 92.77 91.11 C92.11 91.11 91.45 91.11 90.77 91.11 C90.64 91.4 90.64 91.4 90.02 92.86 C88.55 95.5 87.09 97.18 84.77 99.11 C83.11 99.48 81.44 99.81 79.77 100.11 C77.81 101.07 75.92 102.1 74.02 103.17 C68.41 105.5 62.11 105.27 56.12 105.32 C55.29 105.33 54.45 105.34 53.59 105.35 C50.86 105.38 48.12 105.4 45.38 105.43 C43.47 105.45 41.55 105.47 39.64 105.49 C34.63 105.55 29.61 105.59 24.59 105.64 C19.48 105.69 14.37 105.75 9.26 105.8 C1.8 105.88 -5.65 105.96 -13.11 106.03 C-13.5 106.04 -13.5 106.04 -15.48 106.06 C-24.19 106.14 -24.19 106.14 -27.23 104.11 C-27.5 101.62 -27.5 101.62 -27.34 98.52 C-27.32 97.96 -27.32 97.96 -27.19 95.15 C-27.12 93.98 -27.05 92.81 -26.98 91.61 C-26.93 90.44 -26.88 89.28 -26.82 88.08 C-26.39 79.43 -26.39 79.43 -25.23 77.11 C-24.71 77.11 -24.71 77.11 -22.06 77.12 C-12.2 77.16 -2.34 77.19 7.52 77.21 C12.59 77.22 17.66 77.24 22.73 77.26 C27.62 77.28 32.5 77.3 37.39 77.3 C39.26 77.3 41.13 77.31 43 77.32 C45.61 77.34 48.22 77.34 50.83 77.34 C51.22 77.34 51.22 77.34 53.19 77.36 C58.54 77.34 58.54 77.34 60.77 75.11 C60.77 73.79 60.77 72.47 60.77 71.11 C61.43 70.78 62.09 70.45 62.77 70.11 C61.63 67.27 61.09 66 58.77 64.11 C54.4 63.19 50.05 63.35 45.6 63.41 C43.61 63.4 41.62 63.39 39.63 63.38 C36.84 63.37 34.05 63.39 31.26 63.41 C26.4 63.44 21.55 63.44 16.69 63.42 C14.11 63.42 11.53 63.42 8.94 63.45 C-0.24 63.45 -8.67 62.56 -16.23 56.92 C-20.07 54.11 -20.07 54.11 -22.23 54.11 C-28.42 47.23 -29.89 40.63 -29.86 31.67 C-29.86 30.81 -29.85 29.95 -29.85 29.06 C-29.7 24.21 -29.14 21.14 -26.23 17.11 C-25.97 16.08 -25.7 15.05 -25.42 13.99 C-23.84 10.15 -21.9 9.83 -18.23 8.11 C-17.78 7.27 -17.33 6.42 -16.86 5.55 C-14.98 2.73 -14.39 2.62 -11.23 1.86 C-9.9 1.61 -8.57 1.36 -7.23 1.11 C-4.46 0.19 -2.86 -0.01 0 0 Z M93.77 4.11 C93.77 11.04 93.77 17.97 93.77 25.11 C94.1 25.11 94.43 25.11 94.77 25.11 C94.77 18.18 94.77 11.25 94.77 4.11 C94.44 4.11 94.11 4.11 93.77 4.11 Z M-28.23 26.11 C-28.23 30.07 -28.23 34.03 -28.23 38.11 C-27.9 38.11 -27.57 38.11 -27.23 38.11 C-27.23 34.15 -27.23 30.19 -27.23 26.11 C-27.56 26.11 -27.89 26.11 -28.23 26.11 Z M4.77 32.11 C5.77 35.11 5.77 35.11 5.77 35.11 Z M93.77 58.11 C94.77 60.11 94.77 60.11 94.77 60.11 Z M94.77 61.11 C95.77 63.11 95.77 63.11 95.77 63.11 Z M94.77 79.11 C95.77 81.11 95.77 81.11 95.77 81.11 Z M-25.23 80.11 C-25.23 86.05 -25.23 91.99 -25.23 98.11 C-24.9 98.11 -24.57 98.11 -24.23 98.11 C-24.23 92.17 -24.23 86.23 -24.23 80.11 C-24.56 80.11 -24.89 80.11 -25.23 80.11 Z M-25.23 100.11 C-24.23 103.11 -24.23 103.11 -24.23 103.11 Z " fill="#ffffff" transform="translate(679.2333984375,51.88916015625)"/>
<path d="M0 0 C1.31 0.16 2.62 0.33 3.97 0.49 C8.51 1 12.98 1.14 17.55 1.11 C17.95 1.11 17.95 1.11 19.98 1.11 C22.59 1.11 25.2 1.11 27.82 1.1 C29.64 1.1 31.47 1.09 33.29 1.09 C38.07 1.09 42.85 1.08 47.63 1.07 C52.52 1.06 57.4 1.05 62.29 1.05 C71.86 1.04 81.43 1.02 91 1 C91.16 1.33 91.16 1.33 92 3 C94.31 3 96.62 3 99 3 C99.16 3.33 99.16 3.33 100 5 C101.32 5.68 102.66 6.35 104 7 C105.49 8.49 106.97 9.99 108.44 11.5 C111 14 111 14 114 16 C114 16.66 114 17.32 114 18 C114.5 18.16 114.5 18.16 117 19 C118.2 21.36 118.2 21.36 119.25 24.31 C119.61 25.28 119.96 26.24 120.33 27.24 C121.03 30.11 120.89 31.26 120 34 C119.86 38.54 119.89 42.57 121 47 C120.34 47 119.68 47 119 47 C118.9 48.03 118.79 49.06 118.69 50.12 C117.87 54.76 116.76 58.42 113.19 61.62 C112.47 62.08 111.74 62.53 111 63 C108.97 64.29 106.96 65.62 105 67 C105 67.66 105 68.32 105 69 C104.22 69.12 103.43 69.25 102.62 69.38 C100 70 100 70 98 72 C97 73 96 74 95 75 C95.75 77.94 95.75 77.94 97 81 C98.81 81.56 98.81 81.56 101 82 C103.54 84.24 105.58 86.13 107.06 89.19 C108.29 91.56 109.61 91.91 112 93 C114.06 94.68 114.89 95.52 115.5 98.12 C115.66 98.74 115.83 99.36 116 100 C116.5 100.16 116.5 100.16 119 101 C119 102.32 119 103.64 119 105 C113.72 106.76 108.07 106.38 102.54 106.46 C101.06 106.49 99.59 106.53 98.11 106.58 C84.27 107.1 84.27 107.1 79.23 102.66 C78.14 101.45 77.07 100.23 76 99 C74.69 97.97 73.36 96.96 72 96 C67.09 92.46 67.09 92.46 66.66 90.26 C65.1 84.93 60.37 80.45 56.04 77.12 C48.93 73.23 38.53 75.12 31 77 C30.67 86.24 30.34 95.48 30 105 C25.57 107.22 19.49 106.18 14.62 106.19 C13.38 106.2 12.13 106.21 10.85 106.22 C9.66 106.23 8.46 106.23 7.23 106.23 C6.13 106.23 5.03 106.24 3.9 106.24 C1 106 1 106 -3 104 C-3 70.67 -3 37.34 -3 3 C-2.01 2.67 -1.02 2.34 0 2 C0 1.34 0 0.68 0 0 Z M-2 5 C-2 37.34 -2 69.68 -2 103 C-1.67 103 -1.34 103 -1 103 C-1 70.66 -1 38.32 -1 5 C-1.33 5 -1.66 5 -2 5 Z M118 28 C119 30 119 30 119 30 Z M33 29 C31.47 32.07 31.9 35.27 31.94 38.62 C31.94 39.33 31.95 40.04 31.95 40.77 C31.96 42.51 31.98 44.26 32 46 C32.28 46.01 32.28 46.01 33.71 46.03 C39.6 46.14 45.49 46.25 51.38 46.37 C53.58 46.42 55.77 46.46 57.97 46.5 C61.13 46.56 64.29 46.62 67.45 46.68 C68.43 46.7 69.41 46.72 70.42 46.73 C70.88 46.74 70.88 46.74 73.21 46.79 C74.02 46.81 74.82 46.83 75.65 46.84 C78 47 78 47 80.67 47.64 C81.06 47.7 81.06 47.7 83 48 C86.25 44.75 86.8 40.51 87 36 C85.12 32.88 85.12 32.88 83 31 C83.66 30.67 84.32 30.34 85 30 C82.54 28.77 80.94 28.88 78.18 28.89 C77.18 28.89 76.18 28.89 75.15 28.89 C74.07 28.89 72.98 28.9 71.87 28.9 C70.76 28.9 69.65 28.91 68.51 28.91 C64.97 28.91 61.42 28.92 57.88 28.94 C55.48 28.94 53.08 28.95 50.68 28.95 C44.78 28.96 38.89 28.98 33 29 Z M30 33 C30 37.29 30 41.58 30 46 C30.33 46 30.66 46 31 46 C31 41.71 31 37.42 31 33 C30.67 33 30.34 33 30 33 Z M30 47 C30 47.33 30 47.66 30 48 C32.31 48 34.62 48 37 48 C37 47.67 37 47.34 37 47 C34.69 47 32.38 47 30 47 Z M37 48 C37 48.33 37 48.66 37 49 C51.19 49 65.38 49 80 49 C80 48.67 80 48.34 80 48 C75.48 47.12 71.19 46.87 66.59 46.87 C65.9 46.87 65.21 46.87 64.5 46.86 C63.05 46.86 61.6 46.87 60.15 46.87 C57.94 46.87 55.73 46.87 53.52 46.86 C52.11 46.86 50.69 46.87 49.28 46.87 C48 46.87 46.72 46.87 45.41 46.87 C42.47 46.98 39.85 47.31 37 48 Z " fill="#ffffff" transform="translate(525,51)"/>
<path d="M0 0 C3.53 0.01 7.06 -0 10.59 -0.01 C12.85 -0.01 15.12 -0 17.38 -0 C17.91 -0 17.91 -0 20.55 -0.01 C31.07 0.03 31.07 0.03 35.81 1.13 C38.79 5.6 38.22 9.87 38.25 15.13 C38.28 16.14 38.31 17.15 38.35 18.19 C38.4 25.48 38.4 25.48 35.85 28.27 C31.77 29.42 27.97 29.71 23.75 29.82 C22.82 29.85 21.9 29.88 20.95 29.92 C11.26 30.21 1.57 30.23 -8.13 30.26 C-8.52 30.26 -8.52 30.26 -10.53 30.26 C-12.82 30.27 -15.11 30.27 -17.41 30.26 C-18.09 30.27 -18.77 30.27 -19.47 30.27 C-22.72 30.25 -25.78 30.04 -28.99 29.56 C-32.47 29.09 -34.11 29.55 -37.19 31.13 C-37.19 31.79 -37.19 32.45 -37.19 33.13 C-39.23 33.64 -41.24 34.14 -43.32 34.51 C-45.19 35.13 -45.19 35.13 -47.19 38.13 C-50.44 45.46 -51.19 53.17 -51.19 61.13 C-50.94 61.46 -50.94 61.46 -49.69 63.13 C-48.19 65.13 -48.19 65.13 -48.19 67.13 C-47.2 67.13 -46.21 67.13 -45.19 67.13 C-45.15 67.89 -45.11 68.66 -45.07 69.44 C-44.19 72.13 -44.19 72.13 -41.44 74.01 C-38.05 75.18 -36.55 75.22 -33.19 74.13 C-32.86 74.63 -32.86 74.63 -31.19 77.13 C-28.63 77.48 -28.63 77.48 -25.35 77.44 C-24.13 77.43 -22.9 77.43 -21.64 77.42 C-20.3 77.4 -18.95 77.38 -17.61 77.35 C-16.23 77.34 -14.86 77.33 -13.48 77.33 C-9.86 77.3 -6.23 77.26 -2.6 77.22 C3.19 77.15 8.98 77.09 14.78 77.06 C16.8 77.04 18.82 77.01 20.84 76.98 C22.08 76.97 23.31 76.96 24.58 76.95 C25.67 76.94 26.75 76.92 27.87 76.91 C30.9 77.14 33.07 77.85 35.81 79.13 C35.39 85.17 34.38 88.13 30.81 93.13 C29.75 95.42 28.78 97.74 27.84 100.08 C26.69 102.36 25.82 103.56 23.81 105.13 C21.3 105.5 21.3 105.5 18.28 105.5 C17.14 105.51 16 105.52 14.83 105.52 C13.6 105.51 12.37 105.5 11.1 105.49 C9.83 105.49 8.56 105.49 7.25 105.5 C4.55 105.49 1.85 105.48 -0.85 105.47 C-4.28 105.44 -7.7 105.44 -11.12 105.45 C-14.42 105.45 -17.72 105.44 -21.02 105.43 C-22.23 105.43 -23.44 105.43 -24.69 105.43 C-45.75 105.26 -45.75 105.26 -53.19 101.13 C-54.18 100.8 -55.17 100.47 -56.19 100.13 C-59.34 98.66 -62.24 97.16 -64.63 94.57 C-66.19 93.13 -66.19 93.13 -68.25 92.69 C-70.19 92.13 -70.19 92.13 -71.25 90.26 C-71.56 89.55 -71.87 88.85 -72.19 88.13 C-73.89 86.27 -75.72 84.66 -77.63 83.01 C-81.78 78.35 -84.07 73.58 -84.38 67.32 C-84.32 66.27 -84.25 65.21 -84.19 64.13 C-84.51 62.79 -84.84 61.46 -85.19 60.13 C-85.54 57.2 -85.7 54.26 -85.88 51.32 C-85.91 50.93 -85.91 50.93 -86.06 48.95 C-86.62 39.78 -83.67 30.64 -77.82 23.45 C-76.66 22.29 -75.43 21.2 -74.19 20.13 C-72.19 18.13 -72.19 18.13 -71.19 15.13 C-69.13 14.44 -69.13 14.44 -67.19 14.13 C-67.19 13.47 -67.19 12.81 -67.19 12.13 C-65.87 11.8 -64.55 11.47 -63.19 11.13 C-63.19 10.47 -63.19 9.81 -63.19 9.13 C-62.59 9.01 -61.99 8.88 -61.38 8.76 C-59.19 8.13 -59.19 8.13 -56.19 6.13 C-53.53 4.67 -51.14 3.8 -48.19 3.13 C-47.15 2.8 -46.11 2.48 -45.04 2.14 C-41.13 1.11 -37.44 0.69 -33.42 0.51 C-33.04 0.49 -33.04 0.49 -31.11 0.4 C-20.74 -0.05 -10.37 -0.02 0 0 Z M35.81 4.13 C35.81 11.06 35.81 17.99 35.81 25.13 C36.14 25.13 36.47 25.13 36.81 25.13 C36.81 18.2 36.81 11.27 36.81 4.13 C36.48 4.13 36.15 4.13 35.81 4.13 Z M-80.19 29.13 C-79.19 31.13 -79.19 31.13 -79.19 31.13 Z M-84.19 38.13 C-83.19 40.13 -83.19 40.13 -83.19 40.13 Z M-85.19 43.13 C-84.19 45.13 -84.19 45.13 -84.19 45.13 Z M-52.19 44.13 C-51.19 47.13 -51.19 47.13 -51.19 47.13 Z M-53.19 48.13 C-54.24 52.11 -54.03 55.11 -53.19 59.13 C-52.86 59.13 -52.53 59.13 -52.19 59.13 C-52.19 55.5 -52.19 51.87 -52.19 48.13 C-52.52 48.13 -52.85 48.13 -53.19 48.13 Z M-80.19 75.13 C-79.19 77.13 -79.19 77.13 -79.19 77.13 Z M33.81 80.13 C34.81 83.13 34.81 83.13 34.81 83.13 Z " fill="#ffffff" transform="translate(328.190185546875,51.86962890625)"/>
<path d="M0 0 C4.62 0 9.24 0 14 0 C14.16 0.33 14.16 0.33 15 2 C15.78 1.81 16.57 1.63 17.38 1.44 C20 1 20 1 22 2 C22 2.66 22 3.32 22 4 C22.99 4.33 23.98 4.66 25 5 C25.33 5.33 25.33 5.33 27 7 C27.31 7.28 27.31 7.28 28.86 8.73 C31.37 11.39 33.27 14.29 35.19 17.38 C35.98 18.63 36.78 19.89 37.57 21.15 C37.98 21.79 38.38 22.43 38.79 23.09 C39.94 24.91 41.1 26.71 42.27 28.5 C46.63 35.2 50.84 41.97 54.91 48.85 C56.6 51.71 58.34 54.5 60.2 57.25 C62 60 62 60 63 63 C64.33 64.67 65.66 66.34 67 68 C70.37 72.72 73.32 77.45 75.79 82.7 C78 86.91 80.69 90.87 83.29 94.85 C85.01 98.02 85.64 100.44 86 104 C85.68 104.07 85.68 104.07 84.06 104.44 C82 105 82 105 81 106 C78.33 106.38 75.68 106.71 73 107 C72.61 107.04 72.61 107.04 70.66 107.26 C69.13 107.43 67.6 107.6 66.07 107.77 C64.37 107.96 62.67 108.15 60.98 108.35 C52.5 109.34 52.5 109.34 50.44 107.94 C48.4 105.19 47.81 102.29 47 99 C46.34 99 45.68 99 45 99 C44.57 98.11 44.13 97.23 43.69 96.31 C41.75 92.51 39.58 88.92 37.31 85.31 C36 83 36 83 36 81 C35.37 80.76 34.74 80.53 34.1 80.29 C31.4 78.63 31.21 77.46 30.44 74.44 C29.81 72 29.81 72 29 70 C28.5 69.84 28.5 69.84 26 69 C24.75 66.86 24.75 66.86 23.56 64.19 C21.76 60.36 20.04 57.94 17 55 C16.26 53.33 15.52 51.65 14.85 49.95 C13.88 47.72 12.74 45.66 11.5 43.56 C11.3 43.22 11.3 43.22 10.28 41.5 C9.86 41.01 9.44 40.51 9 40 C8.01 40 7.02 40 6 40 C5.34 41.65 4.68 43.3 4 45 C3.34 45 2.68 45 2 45 C1.71 45.78 1.42 46.57 1.12 47.38 C0 50 0 50 -2 52 C-2.06 52.3 -2.06 52.3 -2.38 53.81 C-3.23 56.79 -5.08 58.6 -7 61 C-7.75 63.31 -7.75 63.31 -8 65 C-8.66 65 -9.32 65 -10 65 C-10 65.99 -10 66.98 -10 68 C-10.66 68 -11.32 68 -12 68 C-12.25 68.69 -12.5 69.38 -12.75 70.09 C-14.21 73.48 -16.03 76.44 -18 79.56 C-22.34 86.46 -22.34 86.46 -24 90 C-24.66 90 -25.32 90 -26 90 C-26.12 90.34 -26.12 90.34 -26.75 92.06 C-28.24 95.55 -30.04 98.76 -32 102 C-32.36 102.66 -32.72 103.32 -33.09 104 C-34.27 105.96 -35.28 107.49 -37 109 C-40.86 109.92 -44.26 109.25 -48 108 C-51.58 107.77 -55.16 107.61 -58.75 107.48 C-66.02 107.15 -66.02 107.15 -69 105 C-69.69 103.06 -69.69 103.06 -70 101 C-70.33 100.01 -70.66 99.02 -71 98 C-70.5 97.84 -70.5 97.84 -68 97 C-67 95 -67 95 -66.62 93.06 C-65.88 90.61 -64.79 89.79 -63 88 C-61.81 85.31 -61.81 85.31 -61 83 C-60.34 83 -59.68 83 -59 83 C-58.73 81.87 -58.46 80.73 -58.19 79.56 C-57.8 78.39 -57.4 77.21 -57 76 C-56.5 75.84 -56.5 75.84 -54 75 C-53.44 73.06 -53.44 73.06 -53 71 C-52.67 70.67 -52.67 70.67 -51 69 C-50.83 68.5 -50.83 68.5 -50 66 C-48.89 64.08 -47.73 62.19 -46.56 60.31 C-46.39 60.03 -46.39 60.03 -45.5 58.6 C-44.74 57.38 -43.97 56.15 -43.21 54.93 C-41.98 52.96 -40.75 50.98 -39.53 49.01 C-35.69 42.82 -31.82 36.67 -27.75 30.62 C-18.75 17.24 -18.75 17.24 -17 12 C-16.34 12 -15.68 12 -15 12 C-14.73 11.22 -14.46 10.43 -14.19 9.62 C-13 7 -13 7 -10 5 C-9.34 4.34 -8.68 3.68 -8 3 C-5.34 2.43 -2.71 2.26 0 2 C0 1.34 0 0.68 0 0 Z M2 41 C3 43 3 43 3 43 Z M-2 48 C-1 50 -1 50 -1 50 Z M50 102 C51 104 51 104 51 104 Z " fill="#ffffff" transform="translate(433,50)"/>
<path d="M0 0 C4.87 1.98 9.43 4.42 14 7 C14.59 7.33 15.18 7.65 15.79 7.99 C25.75 13.51 25.75 13.51 27 16 C26.01 15.67 25.02 15.34 24 15 C18.21 14.71 13.57 15.41 8 17 C8 17.66 8 18.32 8 19 C7.11 18.94 6.23 18.88 5.31 18.81 C1.66 19.02 -0.05 19.92 -3 22 C-1.35 22.33 0.3 22.66 2 23 C2 23.66 2 24.32 2 25 C3.65 25.33 5.3 25.66 7 26 C7 26.66 7 27.32 7 28 C8.6 28.81 10.21 29.63 11.81 30.44 C12.71 30.89 13.6 31.34 14.52 31.81 C17 33 17 33 20 34 C20.41 34.45 20.83 34.91 21.25 35.38 C23.84 37.78 26.72 38.7 30 40 C29.62 42.44 29.62 42.44 29 45 C27 46 27 46 24 47 C23.67 47.33 23.67 47.33 22 49 C21.01 49.33 20.02 49.66 19 50 C17.11 50.93 15.24 51.89 13.38 52.88 C12.39 53.39 11.41 53.9 10.4 54.43 C8 56 8 56 7 59 C6.12 59.1 5.25 59.19 4.34 59.29 C0.69 60.07 -1.43 61.29 -4.5 63.38 C-7.49 65.37 -10.35 67.28 -13.62 68.75 C-16 70 -16 70 -17 73 C-17.43 73.07 -17.43 73.07 -19.62 73.44 C-21.78 73.8 -23.93 74.21 -26.06 74.69 C-29.4 75.04 -31.02 74.45 -34 73 C-34.5 72.84 -34.5 72.84 -37 72 C-38 71 -39 70 -40 69 C-40.5 68.84 -40.5 68.84 -43 68 C-45.62 66.86 -47.21 65.8 -49.31 63.81 C-52 62 -52 62 -55.5 62.06 C-58.84 62.96 -61.18 64.03 -64 66 C-63.67 67.65 -63.34 69.3 -63 71 C-64.32 71 -65.64 71 -67 71 C-68 70 -68 70 -68.11 67.96 C-68.11 67.08 -68.1 66.21 -68.1 65.31 C-68.09 64.36 -68.09 63.42 -68.09 62.45 C-68.08 61.95 -68.08 61.95 -68.06 59.44 C-68.06 58.44 -68.05 57.44 -68.05 56.42 C-68.04 53.94 -68.02 51.47 -68 49 C-73.77 50.58 -78.53 53.47 -83.62 56.5 C-85.3 57.49 -86.98 58.48 -88.66 59.47 C-89.4 59.91 -90.14 60.34 -90.9 60.79 C-92.29 61.59 -93.72 62.35 -95.16 63.06 C-97.19 64.1 -98.48 65.32 -100 67 C-103.19 65.4 -104.27 63.07 -106 60 C-106.96 54.42 -107.08 49.13 -106.84 43.48 C-106.83 43.1 -106.83 43.1 -106.77 41.13 C-106.68 38.67 -106.59 36.21 -106.5 33.75 C-106.38 30.49 -106.27 27.24 -106.16 23.98 C-106.13 23.24 -106.1 22.5 -106.06 21.74 C-105.97 18.91 -105.9 16.38 -106.62 13.63 C-106.74 13.09 -106.87 12.55 -107 12 C-106.34 11.34 -105.68 10.68 -105 10 C-104.34 10 -103.68 10 -103 10 C-103.33 24.85 -103.66 39.7 -104 55 C-96.21 51.66 -96.21 51.66 -93 49.38 C-84.01 43.21 -74.54 37.78 -64.94 32.62 C-59.16 29.44 -53.51 26.03 -47.83 22.67 C-42.51 19.53 -37.17 16.4 -31.83 13.27 C-29.91 12.14 -27.99 11.02 -26.06 9.89 C-23.71 8.51 -21.36 7.13 -19.01 5.76 C-17.24 4.73 -15.48 3.68 -13.72 2.63 C-8.82 -0.29 -5.6 -1.23 0 0 Z M-14.62 27.5 C-15.08 28 -15.53 28.49 -16 29 C-15.67 29.16 -15.67 29.16 -14 30 C-13.01 29.34 -12.02 28.68 -11 28 C-11 27.34 -11 26.68 -11 26 C-13 26 -13 26 -14.62 27.5 Z M-29 35 C-30.73 35.78 -30.73 35.78 -32.62 36.94 C-33.74 37.62 -34.85 38.3 -36 39 C-35.5 39.33 -35.5 39.33 -33 41 C-31.02 39.35 -29.04 37.7 -27 36 C-27.66 35.67 -28.32 35.34 -29 35 Z M-39 41 C-39.66 41.66 -40.32 42.32 -41 43 C-39.68 43.33 -38.36 43.66 -37 44 C-37 43.01 -37 42.02 -37 41 C-37.66 41 -38.32 41 -39 41 Z M28 41 C29 43 29 43 29 43 Z M-44 44 C-45.32 45.32 -46.64 46.64 -48 48 C-44 48 -44 48 -42.25 46.5 C-41.84 46 -41.42 45.51 -41 45 C-41.99 44.67 -42.98 44.34 -44 44 Z M-50 48 C-50.49 48.66 -50.49 48.66 -53 52 C-51.35 51.34 -49.7 50.68 -48 50 C-48.66 49.34 -49.32 48.68 -50 48 Z " fill="#033887" transform="translate(107,48)"/>
<path d="M0 0 C4.44 -0.03 8.87 -0.05 13.31 -0.06 C14.58 -0.07 15.84 -0.08 17.14 -0.09 C17.74 -0.09 17.74 -0.09 20.8 -0.1 C21.92 -0.1 23.03 -0.11 24.18 -0.11 C27 0 27 0 30 1 C30 34.99 30 68.98 30 104 C24.7 105.77 19.04 105.18 13.5 105.19 C12.88 105.19 12.88 105.19 9.71 105.22 C8.52 105.23 7.32 105.23 6.09 105.23 C5.55 105.23 5.55 105.23 2.77 105.24 C0 105 0 105 -3 103 C-3.37 101.16 -3.37 101.16 -3.36 98.89 C-3.36 98.03 -3.37 97.17 -3.37 96.28 C-3.37 95.8 -3.37 95.8 -3.34 93.41 C-3.34 92.41 -3.34 91.42 -3.34 90.39 C-3.34 87.09 -3.32 83.79 -3.29 80.49 C-3.29 78.21 -3.28 75.92 -3.28 73.64 C-3.27 67.62 -3.24 61.6 -3.21 55.58 C-3.18 49.44 -3.16 43.3 -3.15 37.16 C-3.11 25.11 -3.06 13.05 -3 1 C-2.01 1.33 -1.02 1.66 0 2 C0 1.34 0 0.68 0 0 Z " fill="#ffffff" transform="translate(791,52)"/>
<path d="M0 0 C0 0.66 0 1.32 0 2 C0.7 2.27 1.4 2.53 2.12 2.8 C2.57 2.98 2.57 2.98 4.88 3.88 C5.78 4.22 6.68 4.57 7.62 4.93 C10.17 6.08 11.5 7.46 13.38 9.5 C15 11 15 11 16.88 11.94 C19.71 13.35 21.75 14.75 24 17 C24.81 20.75 24.81 20.75 25 24 C24.48 24.25 23.97 24.5 23.44 24.75 C20.23 26.4 17.12 28.2 14 30 C14 30.66 14 31.32 14 32 C13.26 32.1 12.51 32.21 11.75 32.31 C8.8 33.05 7.31 34.09 5 36 C4.67 36.16 4.67 36.16 3 37 C3 37.66 3 38.32 3 39 C1.97 39.08 0.94 39.16 -0.12 39.25 C-4.32 40.06 -6.57 41.53 -10 44 C-10.66 44 -11.32 44 -12 44 C-12 44.99 -12 45.98 -12 47 C-12.64 47.12 -13.28 47.25 -13.94 47.38 C-14.62 47.58 -15.3 47.79 -16 48 C-16.16 48.33 -16.16 48.33 -17 50 C-17.68 50.12 -18.36 50.25 -19.06 50.38 C-23.07 51.23 -26.4 53.08 -30 55 C-30 55.66 -30 56.32 -30 57 C-35 59 -35 59 -37.25 59.82 C-39.98 60.99 -42.44 62.42 -44.96 63.97 C-50.97 67.64 -55.83 70 -63 70 C-62.43 67.13 -62.14 66.14 -60 64 C-59.8 61.47 -59.72 59.09 -59.75 56.56 C-59.76 55.84 -59.76 55.13 -59.77 54.39 C-59.92 46.1 -60.7 38.23 -65 31 C-63.49 29.49 -61.82 29.44 -59.75 29 C-58.94 28.83 -58.13 28.65 -57.3 28.48 C-54.87 27.97 -52.44 27.47 -50 27 C-49.88 26.38 -49.75 25.76 -49.62 25.12 C-49 23 -49 23 -47 21 C-46.67 20.34 -46.34 19.68 -46 19 C-43.69 18.27 -41.35 17.6 -39 17 C-39 16.34 -39 15.68 -39 15 C-36.36 14.34 -33.72 13.68 -31 13 C-31 12.34 -31 11.68 -31 11 C-30.01 10.67 -29.02 10.34 -28 10 C-26.64 9.03 -25.31 8.04 -24 7 C-23.34 7.33 -22.68 7.66 -22 8 C-21.67 7.01 -21.34 6.02 -21 5 C-19.67 4.66 -18.34 4.32 -17 4 C-16.15 3.32 -15.31 2.64 -14.44 1.94 C-9.62 -0.78 -5.41 -0.35 0 0 Z " fill="#00AAF0" transform="translate(178,131)"/>
<path d="M0 0 C0 0.66 0 1.32 0 2 C0.83 2.17 0.83 2.17 5 3 C5 3.66 5 4.32 5 5 C6.6 5.81 8.21 6.63 9.81 7.44 C10.71 7.89 11.6 8.34 12.52 8.81 C15 10 15 10 18 11 C18.41 11.45 18.83 11.91 19.25 12.38 C21.84 14.78 24.72 15.7 28 17 C27.62 19.44 27.62 19.44 27 22 C25 23 25 23 22 24 C21.34 24.66 20.68 25.32 20 26 C19.5 26.16 19.5 26.16 17 27 C15.11 27.93 13.24 28.89 11.38 29.88 C10.39 30.39 9.41 30.9 8.4 31.43 C6 33 6 33 5 36 C4.56 36.05 4.56 36.05 2.34 36.29 C-1.31 37.07 -3.43 38.29 -6.5 40.38 C-9.49 42.37 -12.35 44.28 -15.62 45.75 C-18 47 -18 47 -19 50 C-19.87 50.14 -20.73 50.29 -21.62 50.44 C-23.78 50.8 -25.93 51.21 -28.06 51.69 C-31.4 52.04 -33.02 51.45 -36 50 C-36.5 49.84 -36.5 49.84 -39 49 C-40 48 -41 47 -42 46 C-42.99 45.67 -43.98 45.34 -45 45 C-47.98 43.67 -50.25 42.09 -52.69 39.94 C-53.29 39.41 -53.89 38.88 -54.51 38.34 C-56.99 36.11 -56.99 36.11 -57.31 33.62 C-57 31 -57 31 -55.31 29.31 C-53 28 -53 28 -50.5 27.06 C-46.98 25.57 -44.71 23.42 -43 20 C-41.67 19.67 -40.33 19.33 -39 19 C-38.67 18.34 -38.34 17.68 -38 17 C-37.4 16.86 -36.81 16.72 -36.19 16.57 C-32.78 15.68 -30.57 13.4 -27.9 11.18 C-27.27 10.79 -26.65 10.4 -26 10 C-25.5 10.16 -25.5 10.16 -23 11 C-20.88 9.93 -20.88 9.93 -18.56 8.31 C-18.16 8.03 -18.16 8.03 -16.14 6.63 C-14 5 -14 5 -11.75 2.75 C-8.09 -0.91 -4.87 -1.39 0 0 Z M26 18 C27 20 27 20 27 20 Z " fill="#008CEE" transform="translate(109,71)"/>
<path d="M0 0 C6.66 -0.22 12.67 -0.23 19 2 C19.16 2.5 19.16 2.5 20 5 C22.15 6.27 24.26 7.41 26.5 8.5 C28.74 9.59 30.85 10.73 33 12 C33.16 12.5 33.16 12.5 34 15 C31.37 18.11 28.27 19.46 24.62 21.19 C18.45 24.17 12.68 27.54 6.87 31.2 C3.63 33.23 0.34 35.14 -3 37 C-3 37.66 -3 38.32 -3 39 C-4.14 39.23 -5.27 39.45 -6.45 39.69 C-11.45 40.94 -15.5 43.32 -19.88 46 C-20.63 46.45 -21.39 46.9 -22.17 47.37 C-27.68 50.68 -27.68 50.68 -30 53 C-30.66 53.66 -31.32 54.32 -32 55 C-34.5 54.76 -35.66 54.37 -37.38 52.5 C-39.67 50.38 -41.97 50.46 -45 50 C-45.33 49.34 -45.66 48.68 -46 48 C-47.33 47.66 -48.66 47.32 -50 47 C-50.66 46.34 -51.32 45.68 -52 45 C-52.68 44.44 -53.36 43.89 -54.06 43.31 C-56.59 40.3 -56.7 37.86 -57 34 C-56.34 34 -55.68 34 -55 34 C-55 33.34 -55 32.68 -55 32 C-54.16 31.91 -53.32 31.83 -52.46 31.74 C-48.33 30.86 -45.29 29.24 -41.69 27.12 C-41.06 26.77 -40.42 26.42 -39.77 26.06 C-35.13 23.38 -35.13 23.38 -34 20 C-33.28 19.89 -32.56 19.78 -31.82 19.66 C-26.83 18.49 -22.65 15.66 -18.25 13.12 C-17.76 12.85 -17.76 12.85 -15.31 11.48 C-14.39 10.95 -13.47 10.43 -12.52 9.88 C-11.67 9.4 -10.83 8.92 -9.96 8.43 C-8 7 -8 7 -7 4 C-5.02 3.67 -3.04 3.34 -1 3 C-0.67 2.01 -0.34 1.02 0 0 Z " fill="#9FC90A" transform="translate(155,95)"/>
<path d="M0 0 C2.67 0.07 4.14 0.11 6.21 1.83 C7.55 3.7 8.63 5.59 9.69 7.63 C10.09 8.34 10.5 9.06 10.92 9.8 C11.77 11.29 12.61 12.79 13.43 14.3 C15.41 17.87 17.56 21.34 19.69 24.82 C21.82 28.34 23.86 31.87 25.69 35.57 C26.35 36.56 27.01 37.55 27.69 38.57 C27.36 40.22 27.03 41.87 26.69 43.57 C9.86 43.57 -6.97 43.57 -24.31 43.57 C-26.31 36.57 -26.31 36.57 -25.45 34.13 C-24.94 33.4 -24.42 32.67 -23.89 31.91 C-23.32 31.06 -22.76 30.21 -22.17 29.33 C-21.56 28.42 -20.95 27.51 -20.31 26.57 C-19.1 24.52 -17.91 22.47 -16.73 20.41 C-16.13 19.37 -15.53 18.33 -14.91 17.25 C-13.66 15.1 -12.41 12.94 -11.17 10.79 C-10.57 9.75 -9.98 8.72 -9.36 7.66 C-8.82 6.73 -8.28 5.8 -7.73 4.84 C-5.48 1.23 -4.19 0.22 0 0 Z M25.69 39.57 C26.69 41.57 26.69 41.57 26.69 41.57 Z " fill="#ffffff" transform="translate(440.3125,111.43359375)"/>
<path d="M0 0 C27.72 0 55.44 0 84 0 C82 2 82 2 79.41 2.25 C78.31 2.25 77.21 2.24 76.08 2.24 C74.83 2.25 73.58 2.25 72.3 2.25 C70.93 2.25 69.56 2.24 68.18 2.23 C66.77 2.23 65.36 2.23 63.94 2.23 C60.97 2.23 57.99 2.22 55.01 2.21 C51.25 2.19 47.48 2.19 43.72 2.19 C14.2 2.18 14.2 2.18 0 1 C0 0.67 0 0.34 0 0 Z " fill="#ffffff" transform="translate(687,80)"/>
<path d="M0 0 C26.73 0 53.46 0 81 0 C81 0.33 81 0.66 81 1 C54.27 1 27.54 1 0 1 C0 0.67 0 0.34 0 0 Z " fill="#ffffff" transform="translate(656,127)"/>
<path d="M0 0 C20.46 0 40.92 0 62 0 C62 0.33 62 0.66 62 1 C41.54 1 21.08 1 0 1 C0 0.67 0 0.34 0 0 Z " fill="#ffffff" transform="translate(297,127)"/>
<path d="M0 0 C19.8 0 39.6 0 60 0 C60 0.33 60 0.66 60 1 C40.2 1 20.4 1 0 1 C0 0.67 0 0.34 0 0 Z " fill="#ffffff" transform="translate(678,116)"/>
<path d="M0 0 C16.5 0 33 0 50 0 C50 0.33 50 0.66 50 1 C33.5 1 17 1 0 1 C0 0.67 0 0.34 0 0 Z " fill="#ffffff" transform="translate(558,81)"/>
<path d="M0 0 C16.17 0 32.34 0 49 0 C49 0.33 49 0.66 49 1 C32.83 1 16.66 1 0 1 C0 0.67 0 0.34 0 0 Z " fill="#ffffff" transform="translate(416,156)"/>
<path d="M0 0 C1.98 0 3.96 0 6 0 C6 0.66 6 1.32 6 2 C0.67 4.72 -4 6.07 -10 5 C-13.06 3 -13.06 3 -15 1 C-14.62 1.04 -14.62 1.04 -12.7 1.22 C-11.71 1.31 -10.71 1.4 -9.69 1.5 C-9.19 1.55 -9.19 1.55 -6.7 1.78 C-4 2 -4 2 -1 2 C-0.67 1.34 -0.34 0.68 0 0 Z " fill="#005D79" transform="translate(122,156)"/>
<path d="M0 0 C0.41 0.16 0.41 0.16 2.5 1 C6.59 2.17 9.77 2.15 14 2 C14 1.34 14 0.68 14 0 C15.32 0.33 16.64 0.66 18 1 C17.22 1.62 16.43 2.24 15.62 2.88 C13 5 13 5 11 7 C8.5 6.76 7.34 6.37 5.62 4.5 C3.31 2.36 1.06 2.34 -2 2 C-1.34 1.34 -0.68 0.68 0 0 Z " fill="#ffffff" transform="translate(112,143)"/>
<path d="M0 0 C12.21 0 24.42 0 37 0 C37 0.33 37 0.66 37 1 C24.79 1 12.58 1 0 1 C0 0.67 0 0.34 0 0 Z " fill="#ffffff" transform="translate(694,158)"/>
<path d="M0 0 C12.21 0 24.42 0 37 0 C37 0.33 37 0.66 37 1 C24.79 1 12.58 1 0 1 C0 0.67 0 0.34 0 0 Z " fill="#ffffff" transform="translate(734,51)"/>
<path d="M0 0 C2 1 2 1 3.12 4.06 C3.41 5.03 3.7 6 4 7 C1.69 7.66 -0.62 8.32 -3 9 C-3.37 3.46 -3.37 3.46 -1.5 1.12 C-1.01 0.75 -0.51 0.38 0 0 Z " fill="#ffffff" transform="translate(50,102)"/>
<path d="M0 0 C1.32 0.33 2.64 0.66 4 1 C3.5 2.81 3.5 2.81 2 5 C-0.56 6.35 -3.17 7.37 -6 8 C-6.66 7.67 -7.32 7.34 -8 7 C-7.67 6.01 -7.34 5.02 -7 4 C-5.02 3.67 -3.04 3.34 -1 3 C-0.67 2.01 -0.34 1.02 0 0 Z " fill="#024188" transform="translate(19,44)"/>
<path d="M0 0 C11.22 0 22.44 0 34 0 C34 0.33 34 0.66 34 1 C22.78 1 11.56 1 0 1 C0 0.67 0 0.34 0 0 Z " fill="#ffffff" transform="translate(659,158)"/>
<path d="M0 0 C1.65 0 3.3 0 5 0 C4.01 0.33 3.02 0.66 2 1 C1.67 9.25 1.34 17.5 1 26 C0.67 26 0.34 26 0 26 C0 17.42 0 8.84 0 0 Z " fill="#ffffff" transform="translate(556,128)"/>
<path d="M0 0 C0.66 0.66 1.32 1.32 2 2 C-1.96 6.57 -6.28 7.68 -12 9 C-10 6 -10 6 -7.44 5 C-6.63 4.67 -5.83 4.34 -5 4 C-4.67 3.01 -4.34 2.02 -4 1 C-2.06 0.19 -2.06 0.19 0 0 Z " fill="#014873" transform="translate(40,33)"/>
<path d="M0 0 C9.9 0 19.8 0 30 0 C30 0.33 30 0.66 30 1 C20.1 1 10.2 1 0 1 C0 0.67 0 0.34 0 0 Z " fill="#ffffff" transform="translate(309,82)"/>
<path d="M0 0 C3.3 0.99 6.6 1.98 10 3 C10 3.66 10 4.32 10 5 C10.99 5 11.98 5 13 5 C13.33 5.99 13.66 6.98 14 8 C12.35 8 10.7 8 9 8 C9 7.34 9 6.68 9 6 C8.07 5.75 7.14 5.5 6.19 5.25 C3 4 3 4 0 0 Z " fill="#02427A" transform="translate(55,109)"/>
<path d="M0 0 C7.26 0 14.52 0 22 0 C22 0.33 22 0.66 22 1 C18.53 1.16 18.53 1.16 1 2 C0.67 1.34 0.34 0.68 0 0 Z " fill="#ffffff" transform="translate(576,50)"/>
<path d="M0 0 C8.91 0 17.82 0 27 0 C27 0.33 27 0.66 27 1 C18.09 1 9.18 1 0 1 C0 0.67 0 0.34 0 0 Z " fill="#ffffff" transform="translate(791,158)"/>
<path d="M0 0 C8.91 0 17.82 0 27 0 C27 0.33 27 0.66 27 1 C18.09 1 9.18 1 0 1 C0 0.67 0 0.34 0 0 Z " fill="#ffffff" transform="translate(526,158)"/>
<path d="M0 0 C1 3 1 3 1.44 5.12 C1.53 5.43 1.53 5.43 2 7 C2.66 7.33 3.32 7.66 4 8 C3.67 8.99 3.34 9.98 3 11 C0.5 9.88 0.5 9.88 -2 8 C-2.44 4.94 -2.44 4.94 -2 2 C-1.34 1.34 -0.68 0.68 0 0 Z " fill="#ffffff" transform="translate(686,81)"/>
<path d="M0 0 C0 0.33 0 0.66 0 1 C-7.34 2.17 -14.58 2.09 -22 2 C-22 1.67 -22 1.34 -22 1 C-14.64 0.09 -7.41 -0.11 0 0 Z " fill="#ffffff" transform="translate(312,50)"/>
<path d="M0 0 C8.25 0 16.5 0 25 0 C25 0.33 25 0.66 25 1 C16.75 1 8.5 1 0 1 C0 0.67 0 0.34 0 0 Z " fill="#ffffff" transform="translate(326,158)"/>
<path d="M0 0 C1.98 0 3.96 0 6 0 C5.69 1.94 5.69 1.94 5 4 C1.87 5.04 1.01 4.93 -2 4 C-2 3.34 -2 2.68 -2 2 C-1.34 2 -0.68 2 0 2 C0 1.34 0 0.68 0 0 Z " fill="#658708" transform="translate(100,127)"/>
<path d="M0 0 C2.64 0 5.28 0 8 0 C7.48 0.41 6.97 0.83 6.44 1.25 C5.96 1.83 5.49 2.41 5 3 C5.31 5.19 5.31 5.19 6 7 C3 5.19 3 5.19 0 3 C0 2.01 0 1.02 0 0 Z " fill="#ffffff" transform="translate(615,123)"/>
<path d="M0 0 C0.33 0.99 0.66 1.98 1 3 C0.34 3.66 -0.32 4.32 -1 5 C-1.41 8.04 -1.41 8.04 -1.62 11.62 C-1.7 12.81 -1.77 14 -1.85 15.23 C-1.88 15.68 -1.88 15.68 -2 18 C-2.33 18 -2.66 18 -3 18 C-3.08 15.37 -3.14 12.75 -3.19 10.12 C-3.21 9.38 -3.24 8.63 -3.26 7.86 C-3.29 5.7 -3.29 5.7 -3 2 C-2.01 1.34 -1.02 0.68 0 0 Z " fill="#ffffff" transform="translate(653,72)"/>
<path d="M0 0 C7.59 0 15.18 0 23 0 C23 0.33 23 0.66 23 1 C15.41 1 7.82 1 0 1 C0 0.67 0 0.34 0 0 Z " fill="#ffffff" transform="translate(293,158)"/>
<path d="M0 0 C7.26 0 14.52 0 22 0 C22 0.33 22 0.66 22 1 C14.74 1 7.48 1 0 1 C0 0.67 0 0.34 0 0 Z " fill="#ffffff" transform="translate(619,158)"/>
<path d="M0 0 C-3.25 2.04 -6.41 3.67 -10 5 C-9.67 3.68 -9.34 2.36 -9 1 C-2.25 -1.12 -2.25 -1.12 0 0 Z " fill="#005665" transform="translate(141,149)"/>
<path d="M0 0 C6.93 0 13.86 0 21 0 C21 0.33 21 0.66 21 1 C14.07 1 7.14 1 0 1 C0 0.67 0 0.34 0 0 Z " fill="#ffffff" transform="translate(700,51)"/>
<path d="M0 0 C2 1 2 1 3.44 2.5 C5 4 5 4 8 5 C5.21 6.03 4.13 6.05 1.25 5.06 C0.51 4.71 -0.24 4.36 -1 4 C-0.67 2.68 -0.34 1.36 0 0 Z " fill="#00718C" transform="translate(188,138)"/>
<path d="M0 0 C6.27 0 12.54 0 19 0 C19 0.33 19 0.66 19 1 C12.73 1 6.46 1 0 1 C0 0.67 0 0.34 0 0 Z " fill="#ffffff" transform="translate(342,82)"/>
<path d="M0 0 C0.45 0.04 0.45 0.04 2.75 0.25 C2.75 0.91 2.75 1.57 2.75 2.25 C-0.76 3.85 -3.39 4.47 -7.25 4.25 C-4.84 1.28 -3.9 0.3 0 0 Z " fill="#ffffff" transform="translate(125.25,155.75)"/>
<path d="M0 0 C1.32 0.33 2.64 0.66 4 1 C3.67 2.65 3.34 4.3 3 6 C2.01 6 1.02 6 0 6 C0 4.02 0 2.04 0 0 Z M2 2 C3 4 3 4 3 4 Z " fill="#004F8F" transform="translate(133,87)"/>
<path d="M0 0 C0.98 0.1 1.95 0.2 2.96 0.31 C3.69 0.39 4.43 0.48 5.19 0.56 C5.19 0.89 5.19 1.22 5.19 1.56 C-0.09 1.56 -5.37 1.56 -10.81 1.56 C-10.81 1.23 -10.81 0.9 -10.81 0.56 C-7.02 -0.37 -3.88 -0.42 0 0 Z " fill="#ffffff" transform="translate(688.8125,50.4375)"/>
<path d="M0 0 C5.61 0 11.22 0 17 0 C17 0.33 17 0.66 17 1 C11.39 1 5.78 1 0 1 C0 0.67 0 0.34 0 0 Z " fill="#ffffff" transform="translate(368,158)"/>
<path d="M0 0 C0.99 0 1.98 0 3 0 C3.66 1.65 4.32 3.3 5 5 C4.34 5.66 3.68 6.32 3 7 C0 2.25 0 2.25 0 0 Z " fill="#ffffff" transform="translate(464,124)"/>
<path d="M0 0 C-1 1 -1 1 -4.16 1.1 C-4.8 1.09 -4.8 1.09 -8.06 1.06 C-9.35 1.05 -10.64 1.04 -11.97 1.04 C-12.97 1.02 -13.97 1.01 -15 1 C-15 0.67 -15 0.34 -15 0 C-12.88 -0.19 -10.75 -0.38 -8.62 -0.56 C-7.44 -0.67 -6.26 -0.77 -5.04 -0.88 C-2 -1 -2 -1 0 0 Z " fill="#ffffff" transform="translate(817,51)"/>
<path d="M0 0 C0.33 0 0.66 0 1 0 C1 4.62 1 9.24 1 14 C0.67 14 0.34 14 0 14 C0 9.38 0 4.76 0 0 Z " fill="#ffffff" transform="translate(776,116)"/>
<path d="M0 0 C0.33 0 0.66 0 1 0 C1 4.62 1 9.24 1 14 C0.67 14 0.34 14 0 14 C0 9.38 0 4.76 0 0 Z " fill="#00008E" transform="translate(241,98)"/>
<path d="M0 0 C1.42 -0.05 2.83 -0.09 4.25 -0.12 C5.04 -0.15 5.83 -0.17 6.64 -0.2 C9 0 9 0 13 2 C8.71 1.67 4.42 1.34 0 1 C0 0.67 0 0.34 0 0 Z " fill="#ffffff" transform="translate(349,50)"/>
<path d="M0 0 C0.66 0 1.32 0 2 0 C2 3.96 2 7.92 2 12 C1.67 12 1.34 12 1 12 C0.67 8.04 0.34 4.08 0 0 Z " fill="#ffffff" transform="translate(786,122)"/>
<path d="M0 0 C4.29 0 8.58 0 13 0 C13 0.33 13 0.66 13 1 C8.71 1 4.42 1 0 1 C0 0.67 0 0.34 0 0 Z " fill="#ffffff" transform="translate(598,51)"/>
<path d="M0 0 C0.33 0 0.66 0 1 0 C1 3.96 1 7.92 1 12 C0.67 12 0.34 12 0 12 C0 8.04 0 4.08 0 0 Z " fill="#ffffff" transform="translate(787,96)"/>
<path d="M0 0 C2.64 0 5.28 0 8 0 C7.34 0.66 6.68 1.32 6 2 C2.88 1.62 2.88 1.62 0 1 C0 0.67 0 0.34 0 0 Z " fill="#00949F" transform="translate(153,76)"/>
<path d="M0 0 C0.33 0 0.66 0 1 0 C1 3.63 1 7.26 1 11 C0.67 11 0.34 11 0 11 C0 7.37 0 3.74 0 0 Z " fill="#ffffff" transform="translate(787,144)"/>
<path d="M0 0 C1.65 1.65 3.3 3.3 5 5 C4.01 5 3.02 5 2 5 C2 4.34 2 3.68 2 3 C1.34 3 0.68 3 0 3 C0 2.01 0 1.02 0 0 Z " fill="#ffffff" transform="translate(586,135)"/>
<path d="M0 0 C3.63 0 7.26 0 11 0 C11 0.33 11 0.66 11 1 C7.37 1 3.74 1 0 1 C0 0.67 0 0.34 0 0 Z " fill="#ffffff" transform="translate(791,50)"/>
<path d="M0 0 C3.62 0.38 3.62 0.38 7 1 C3.8 2.07 1.34 2.07 -2 2 C-1.34 1.34 -0.68 0.68 0 0 Z " fill="#ffffff" transform="translate(561,50)"/>
<path d="M0 0 C3.3 0 6.6 0 10 0 C10 0.33 10 0.66 10 1 C6.7 1 3.4 1 0 1 C0 0.67 0 0.34 0 0 Z " fill="#ffffff" transform="translate(504,157)"/>
<path d="M0 0 C0.33 0 0.66 0 1 0 C1 3.3 1 6.6 1 10 C0.67 10 0.34 10 0 10 C0 6.7 0 3.4 0 0 Z " fill="#ffffff" transform="translate(787,78)"/>
<path d="M0 0 C3.3 0 6.6 0 10 0 C10 0.33 10 0.66 10 1 C6.7 1 3.4 1 0 1 C0 0.67 0 0.34 0 0 Z " fill="#ffffff" transform="translate(723,51)"/>
<path d="M0 0 C0.66 0.66 1.32 1.32 2 2 C-0.97 2 -3.94 2 -7 2 C-7 1.67 -7 1.34 -7 1 C-3.62 0.38 -3.62 0.38 0 0 Z " fill="#00008C" transform="translate(322,50)"/>
<path d="M0 0 C0.33 0 0.66 0 1 0 C1.33 2.31 1.66 4.62 2 7 C1.67 7.17 1.67 7.17 0 8 C0 5.36 0 2.72 0 0 Z " fill="#00316A" transform="translate(645,85)"/>
<path d="M0 0 C0.33 0 0.66 0 1 0 C1 2.97 1 5.94 1 9 C0.67 9 0.34 9 0 9 C0 6.03 0 3.06 0 0 Z " fill="#ffffff" transform="translate(787,66)"/>
<path d="M0 0 C1.98 0 3.96 0 6 0 C5.67 0.66 5.34 1.32 5 2 C3.02 2 1.04 2 -1 2 C-0.67 1.34 -0.34 0.68 0 0 Z " fill="#ffffff" transform="translate(327,50)"/>
<path d="M0 0 C2.64 0 5.28 0 8 0 C8 0.33 8 0.66 8 1 C5.36 1 2.72 1 0 1 C0 0.67 0 0.34 0 0 Z " fill="#ffffff" transform="translate(736,158)"/>
<path d="M0 0 C2.64 0 5.28 0 8 0 C8 0.33 8 0.66 8 1 C5.36 1 2.72 1 0 1 C0 0.67 0 0.34 0 0 Z " fill="#ffffff" transform="translate(609,158)"/>
<path d="M0 0 C0.33 0 0.66 0 1 0 C1 2.64 1 5.28 1 8 C0.67 8 0.34 8 0 8 C0 5.36 0 2.72 0 0 Z " fill="#ffffff" transform="translate(787,135)"/>
<path d="M0 0 C2.64 0 5.28 0 8 0 C8 0.33 8 0.66 8 1 C5.36 1 2.72 1 0 1 C0 0.67 0 0.34 0 0 Z " fill="#ffffff" transform="translate(570,128)"/>
<path d="M0 0 C2.64 0 5.28 0 8 0 C8 0.33 8 0.66 8 1 C5.36 1 2.72 1 0 1 C0 0.67 0 0.34 0 0 Z " fill="#ffffff" transform="translate(561,127)"/>
<path d="M0 0 C2.64 0 5.28 0 8 0 C8 0.33 8 0.66 8 1 C5.36 1 2.72 1 0 1 C0 0.67 0 0.34 0 0 Z " fill="#001F9F" transform="translate(123,63)"/>
<path d="M0 0 C0.33 0 0.66 0 1 0 C1 2.31 1 4.62 1 7 C0.67 7 0.34 7 0 7 C-0.38 5.01 -0.71 3.01 -1 1 C-0.67 0.67 -0.34 0.34 0 0 Z " fill="#ffffff" transform="translate(787,55)"/>
<path d="M0 0 C2.64 0 5.28 0 8 0 C8 0.33 8 0.66 8 1 C5.36 1 2.72 1 0 1 C0 0.67 0 0.34 0 0 Z " fill="#ffffff" transform="translate(527,50)"/>
<path d="M0 0 C2.31 0 4.62 0 7 0 C7 0.33 7 0.66 7 1 C4.69 1 2.38 1 0 1 C0 0.67 0 0.34 0 0 Z " fill="#ffffff" transform="translate(497,158)"/>
<path d="M0 0 C0.66 0.33 0.66 0.33 4 2 C3.67 2.66 3.34 3.32 3 4 C2.01 2.68 1.02 1.36 0 0 Z " fill="#ffffff" transform="translate(631,60)"/>
<path d="M0 0 C0.99 0.66 1.98 1.32 3 2 C1.02 2 -0.96 2 -3 2 C-2.01 1.34 -1.02 0.68 0 0 Z " fill="#000091" transform="translate(573,50)"/>
<path d="M0 0 C2.31 0 4.62 0 7 0 C7 0.33 7 0.66 7 1 C4.69 1 2.38 1 0 1 C0 0.67 0 0.34 0 0 Z " fill="#ffffff" transform="translate(535,51)"/>
<path d="M0 0 C1.98 0 3.96 0 6 0 C6 0.33 6 0.66 6 1 C4.02 1 2.04 1 0 1 C0 0.67 0 0.34 0 0 Z " fill="#ffffff" transform="translate(488,160)"/>
<path d="M0 0 C1.98 0 3.96 0 6 0 C6 0.33 6 0.66 6 1 C4.02 1 2.04 1 0 1 C0 0.67 0 0.34 0 0 Z " fill="#ffffff" transform="translate(388,160)"/>
<path d="M0 0 C1.98 0 3.96 0 6 0 C6 0.33 6 0.66 6 1 C4.02 1 2.04 1 0 1 C0 0.67 0 0.34 0 0 Z " fill="#ffffff" transform="translate(282,156)"/>
<path d="M0 0 C0.33 1.32 0.66 2.64 1 4 C0.34 3.67 -0.32 3.34 -1 3 C-0.67 2.01 -0.34 1.02 0 0 Z " fill="#ffffff" transform="translate(242,112)"/>
<path d="M0 0 C0.33 0 0.66 0 1 0 C1 1.98 1 3.96 1 6 C0.67 6 0.34 6 0 6 C0 4.02 0 2.04 0 0 Z " fill="#ffffff" transform="translate(787,109)"/>
<path d="M0 0 C0.82 0.17 0.82 0.17 5 1 C4.67 1.17 4.67 1.17 3 2 C2.01 1.34 1.02 0.68 0 0 Z " fill="#7F7F00" transform="translate(163,93)"/>
<path d="M0 0 C1.98 0 3.96 0 6 0 C6 0.33 6 0.66 6 1 C4.02 1 2.04 1 0 1 C0 0.67 0 0.34 0 0 Z " fill="#ffffff" transform="translate(297,82)"/>
<path d="M0 0 C0.66 0.33 1.32 0.66 2 1 C0.68 1.33 -0.64 1.66 -2 2 C-1.34 1.34 -0.68 0.68 0 0 Z " fill="#00657F" transform="translate(134,194)"/>
<path d="M0 0 C1.65 0 3.3 0 5 0 C5 0.33 5 0.66 5 1 C3.35 1 1.7 1 0 1 C0 0.67 0 0.34 0 0 Z " fill="#ffffff" transform="translate(744,157)"/>
<path d="M0 0 C0.33 0 0.66 0 1 0 C1 1.65 1 3.3 1 5 C0.67 5 0.34 5 0 5 C0 3.35 0 1.7 0 0 Z " fill="#ffffff" transform="translate(203,148)"/>
<path d="M0 0 C0.33 0 0.66 0 1 0 C1 1.65 1 3.3 1 5 C0.67 5 0.34 5 0 5 C0 3.35 0 1.7 0 0 Z " fill="#77D400" transform="translate(97,131)"/>
<path d="M0 0 C1.65 0 3.3 0 5 0 C5 0.33 5 0.66 5 1 C3.35 1 1.7 1 0 1 C0 0.67 0 0.34 0 0 Z " fill="#ffffff" transform="translate(169,129)"/>
<path d="M0 0 C0.99 0.33 1.98 0.66 3 1 C1.68 1.33 0.36 1.66 -1 2 C-0.67 1.34 -0.34 0.68 0 0 Z " fill="#666600" transform="translate(156,129)"/>
<path d="M0 0 C0.66 0.33 1.32 0.66 2 1 C0.68 1.33 -0.64 1.66 -2 2 C-1.34 1.34 -0.68 0.68 0 0 Z " fill="#7F7F00" transform="translate(181,115)"/>
<path d="M0 0 C1.65 0 3.3 0 5 0 C5 0.33 5 0.66 5 1 C3.35 1 1.7 1 0 1 C0 0.67 0 0.34 0 0 Z " fill="#ffffff" transform="translate(438,110)"/>
<path d="M0 0 C1.65 0 3.3 0 5 0 C5 0.33 5 0.66 5 1 C3.35 1 1.7 1 0 1 C0 0.67 0 0.34 0 0 Z " fill="#000065" transform="translate(115,65)"/>
<path d="M0 0 C1.65 0 3.3 0 5 0 C5 0.33 5 0.66 5 1 C3.35 1 1.7 1 0 1 C0 0.67 0 0.34 0 0 Z " fill="#00007F" transform="translate(337,51)"/>
<path d="M0 0 C1.65 0 3.3 0 5 0 C5 0.33 5 0.66 5 1 C3.35 1 1.7 1 0 1 C0 0.67 0 0.34 0 0 Z " fill="#ffffff" transform="translate(342,50)"/>
<path d="M0 0 C1.32 0.33 2.64 0.66 4 1 C3.67 1.16 3.67 1.16 2 2 C1.34 1.34 0.68 0.68 0 0 Z " fill="#007F8C" transform="translate(136,16)"/>
<path d="M0 0 C4 1 4 1 4 1 Z " fill="#007F7F" transform="translate(96,209)"/>
<path d="M0 0 C0.99 0.33 1.98 0.66 3 1 C2.01 1 1.02 1 0 1 C0 0.67 0 0.34 0 0 Z " fill="#003F9F" transform="translate(18,164)"/>
<path d="M0 0 C4 1 4 1 4 1 Z " fill="#ffffff" transform="translate(317,158)"/>
<path d="M0 0 C1 4 1 4 1 4 Z " fill="#ffffff" transform="translate(413,150)"/>
<path d="M0 0 C0.99 0.33 1.98 0.66 3 1 C2.01 1.33 1.02 1.66 0 2 C0 1.34 0 0.68 0 0 Z " fill="#ffffff" transform="translate(163,131)"/>
<path d="M0 0 C4 1 4 1 4 1 Z " fill="#ffffff" transform="translate(78,124)"/>
<path d="M0 0 C0.66 0.33 1.32 0.66 2 1 C1.01 1 0.02 1 -1 1 C-0.67 0.67 -0.34 0.34 0 0 Z " fill="#ffffff" transform="translate(631,117)"/>
<path d="M0 0 C0.66 0.33 1.32 0.66 2 1 C1.01 1 0.02 1 -1 1 C-0.67 0.67 -0.34 0.34 0 0 Z " fill="#00557F" transform="translate(44,113)"/>
<path d="M0 0 C4 1 4 1 4 1 Z " fill="#005FBF" transform="translate(51,110)"/>
<path d="M0 0 C4 1 4 1 4 1 Z " fill="#005F7F" transform="translate(149,75)"/>
<path d="M0 0 C0.33 0.66 0.66 1.32 1 2 C0.01 1.67 -0.98 1.34 -2 1 C-1.34 0.67 -0.68 0.34 0 0 Z " fill="#008A9F" transform="translate(170,70)"/>
<path d="M0 0 C1 4 1 4 1 4 Z " fill="#007F7F" transform="translate(194,51)"/>
<path d="M0 0 C0.66 0.33 1.32 0.66 2 1 C1.01 1 0.02 1 -1 1 C-0.67 0.67 -0.34 0.34 0 0 Z " fill="#007F7F" transform="translate(43,30)"/>
<path d="M0 0 C4 1 4 1 4 1 Z " fill="#005FBF" transform="translate(95,0)"/>
<path d="M0 0 C3 1 3 1 3 1 Z " fill="#0069A9" transform="translate(105,209)"/>
<path d="M0 0 C3 1 3 1 3 1 Z " fill="#007F7F" transform="translate(118,203)"/>
<path d="M0 0 C3 1 3 1 3 1 Z " fill="#007F7F" transform="translate(153,183)"/>
<path d="M0 0 C3 1 3 1 3 1 Z " fill="#ffffff" transform="translate(494,159)"/>
<path d="M0 0 C3 1 3 1 3 1 Z " fill="#ffffff" transform="translate(385,159)"/>
<path d="M0 0 C3 1 3 1 3 1 Z " fill="#ffffff" transform="translate(732,158)"/>
<path d="M0 0 C3 1 3 1 3 1 Z " fill="#ffffff" transform="translate(322,158)"/>
<path d="M0 0 C3 1 3 1 3 1 Z " fill="#ffffff" transform="translate(290,157)"/>
<path d="M0 0 C3 1 3 1 3 1 Z " fill="#ffffff" transform="translate(118,157)"/>
<path d="M0 0 C3 1 3 1 3 1 Z " fill="#ffffff" transform="translate(112,157)"/>
<path d="M0 0 C3 1 3 1 3 1 Z " fill="#ffffff" transform="translate(751,156)"/>
<path d="M0 0 C3 1 3 1 3 1 Z " fill="#388D00" transform="translate(113,146)"/>
<path d="M0 0 C3 1 3 1 3 1 Z " fill="#388D00" transform="translate(130,144)"/>
<path d="M0 0 C0.66 0 1.32 0 2 0 C1.67 0.66 1.34 1.32 1 2 C0.67 1.34 0.34 0.68 0 0 Z " fill="#ffffff" transform="translate(621,130)"/>
<path d="M0 0 C3 1 3 1 3 1 Z " fill="#ffffff" transform="translate(287,125)"/>
<path d="M0 0 C3 1 3 1 3 1 Z " fill="#388D00" transform="translate(112,120)"/>
<path d="" fill="#ffffff" transform="translate(0,0)"/>
<path d="M0 0 C3 1 3 1 3 1 Z " fill="#ffffff" transform="translate(675,115)"/>
<path d="M0 0 C3 1 3 1 3 1 Z " fill="#00007F" transform="translate(46,112)"/>
<path d="M0 0 C3 1 3 1 3 1 Z " fill="#ffffff" transform="translate(605,97)"/>
<path d="M0 0 C3 1 3 1 3 1 Z " fill="#AAAA00" transform="translate(159,93)"/>
<path d="" fill="#ffffff" transform="translate(0,0)"/>
<path d="M0 0 C3 1 3 1 3 1 Z " fill="#ffffff" transform="translate(751,91)"/>
<path d="M0 0 C3 1 3 1 3 1 Z " fill="#003F69" transform="translate(293,82)"/>
<path d="M0 0 C3 1 3 1 3 1 Z " fill="#00AAAA" transform="translate(121,79)"/>
<path d="M0 0 C3 1 3 1 3 1 Z " fill="#0055C6" transform="translate(143,71)"/>
<path d="M0 0 C3 1 3 1 3 1 Z " fill="#ffffff" transform="translate(105,69)"/>
<path d="M0 0 C3 1 3 1 3 1 Z " fill="#002A7F" transform="translate(109,67)"/>
<path d="M0 0 C3 1 3 1 3 1 Z " fill="#008D8D" transform="translate(132,65)"/>
<path d="M0 0 C3 1 3 1 3 1 Z " fill="#ffffff" transform="translate(120,64)"/>
<path d="M0 0 C3 1 3 1 3 1 Z " fill="#ffffff" transform="translate(186,61)"/>
<path d="M0 0 C3 1 3 1 3 1 Z " fill="#ffffff" transform="translate(283,52)"/>
<path d="M0 0 C3 1 3 1 3 1 Z " fill="#ffffff" transform="translate(334,50)"/>
<path d="M0 0 C3 1 3 1 3 1 Z " fill="#0055AA" transform="translate(60,20)"/>
<path d="M0 0 C3 1 3 1 3 1 Z " fill="#00AAAA" transform="translate(81,8)"/>
<path d="M0 0 C3 1 3 1 3 1 Z " fill="#0054FF" transform="translate(107,0)"/>
<path d="M0 0 C2 1 2 1 2 1 Z " fill="#007F7F" transform="translate(94,208)"/>
<path d="M0 0 C2 1 2 1 2 1 Z " fill="#003F7F" transform="translate(92,207)"/>
<path d="M0 0 C2 1 2 1 2 1 Z " fill="#007FBF" transform="translate(113,206)"/>
<path d="M0 0 C2 1 2 1 2 1 Z " fill="#003F7F" transform="translate(115,205)"/>
<path d="M0 0 C2 1 2 1 2 1 Z " fill="#005F7F" transform="translate(87,204)"/>
<path d="M0 0 C2 1 2 1 2 1 Z " fill="#007F7F" transform="translate(85,203)"/>
<path d="M0 0 C2 1 2 1 2 1 Z " fill="#002AD4" transform="translate(122,201)"/>
<path d="M0 0 C2 1 2 1 2 1 Z " fill="#006ABF" transform="translate(125,199)"/>
<path d="M0 0 C2 1 2 1 2 1 Z " fill="#0055AA" transform="translate(127,198)"/>
<path d="M0 0 C2 1 2 1 2 1 Z " fill="#002AD4" transform="translate(129,197)"/>
<path d="M0 0 C2 1 2 1 2 1 Z " fill="#0094BF" transform="translate(75,197)"/>
<path d="M0 0 C2 1 2 1 2 1 Z " fill="#007F7F" transform="translate(71,195)"/>
<path d="M0 0 C2 1 2 1 2 1 Z " fill="#002AD4" transform="translate(136,193)"/>
<path d="M0 0 C2 1 2 1 2 1 Z " fill="#0094BF" transform="translate(68,193)"/>
<path d="M0 0 C2 1 2 1 2 1 Z " fill="#ffffff" transform="translate(66,192)"/>
<path d="M0 0 C2 1 2 1 2 1 Z " fill="#0055BF" transform="translate(141,190)"/>
<path d="M0 0 C2 1 2 1 2 1 Z " fill="#0055BF" transform="translate(63,190)"/>
<path d="M0 0 C2 1 2 1 2 1 Z " fill="#007FFF" transform="translate(61,189)"/>
<path d="M0 0 C2 1 2 1 2 1 Z " fill="#00BFDF" transform="translate(58,187)"/>
<path d="M0 0 C2 1 2 1 2 1 Z " fill="#00557F" transform="translate(148,186)"/>
<path d="M0 0 C2 1 2 1 2 1 Z " fill="#007F7F" transform="translate(56,186)"/>
<path d="M0 0 C2 1 2 1 2 1 Z " fill="#ffffff" transform="translate(150,185)"/>
<path d="M0 0 C2 1 2 1 2 1 Z " fill="#003F7F" transform="translate(54,185)"/>
<path d="M0 0 C2 1 2 1 2 1 Z " fill="#007FFF" transform="translate(157,181)"/>
<path d="M0 0 C2 1 2 1 2 1 Z " fill="#ffffff" transform="translate(45,180)"/>
<path d="M0 0 C2 1 2 1 2 1 Z " fill="#00557F" transform="translate(162,178)"/>
<path d="M0 0 C2 1 2 1 2 1 Z " fill="#ffffff" transform="translate(40,177)"/>
<path d="M0 0 C2 1 2 1 2 1 Z " fill="#0055FF" transform="translate(37,175)"/>
<path d="M0 0 C2 1 2 1 2 1 Z " fill="#007F7F" transform="translate(169,174)"/>
<path d="M0 0 C2 1 2 1 2 1 Z " fill="#007FBF" transform="translate(171,173)"/>
<path d="M0 0 C2 1 2 1 2 1 Z " fill="#007F7F" transform="translate(33,173)"/>
<path d="M0 0 C2 1 2 1 2 1 Z " fill="#00AAD4" transform="translate(174,171)"/>
<path d="M0 0 C2 1 2 1 2 1 Z " fill="#ffffff" transform="translate(29,171)"/>
<path d="M0 0 C2 1 2 1 2 1 Z " fill="#0055AA" transform="translate(176,170)"/>
<path d="M0 0 C2 1 2 1 2 1 Z " fill="#ffffff" transform="translate(26,169)"/>
<path d="M0 0 C2 1 2 1 2 1 Z " fill="#0055BF" transform="translate(23,167)"/>
<path d="M0 0 C2 1 2 1 2 1 Z " fill="#ffffff" transform="translate(21,166)"/>
<path d="M0 0 C2 1 2 1 2 1 Z " fill="#ffffff" transform="translate(187,164)"/>
<path d="M0 0 C2 1 2 1 2 1 Z " fill="#ffffff" transform="translate(15,163)"/>
<path d="M0 0 C2 1 2 1 2 1 Z " fill="#007FFF" transform="translate(192,161)"/>
<path d="M0 0 C2 1 2 1 2 1 Z " fill="#003FFF" transform="translate(12,161)"/>
<path d="M0 0 C2 1 2 1 2 1 Z " fill="#009FFF" transform="translate(195,159)"/>
<path d="M0 0 C2 1 2 1 2 1 Z " fill="#ffffff" transform="translate(197,158)"/>
<path d="M0 0 C2 1 2 1 2 1 Z " fill="#ffffff" transform="translate(607,157)"/>
<path d="M0 0 C2 1 2 1 2 1 Z " fill="#ffffff" transform="translate(124,155)"/>
<path d="M0 0 C2 1 2 1 2 1 Z " fill="#ffffff" transform="translate(276,154)"/>
<path d="M0 0 C2 1 2 1 2 1 Z " fill="#007F7F" transform="translate(126,154)"/>
<path d="" fill="#ffffff" transform="translate(0,0)"/>
<path d="M0 0 C2 1 2 1 2 1 Z " fill="#ffffff" transform="translate(103,153)"/>
<path d="M0 0 C2 1 2 1 2 1 Z " fill="#ffffff" transform="translate(759,152)"/>
<path d="M0 0 C2 1 2 1 2 1 Z " fill="#0055FF" transform="translate(129,152)"/>
<path d="M0 0 C2 1 2 1 2 1 Z " fill="#ffffff" transform="translate(95,148)"/>
<path d="M0 0 C2 1 2 1 2 1 Z " fill="#55BF00" transform="translate(125,147)"/>
<path d="M0 0 C2 1 2 1 2 1 Z " fill="#003F7F" transform="translate(93,147)"/>
<path d="M0 0 C2 1 2 1 2 1 Z " fill="#3F7F00" transform="translate(127,146)"/>
<path d="M0 0 C2 1 2 1 2 1 Z " fill="#003F7F" transform="translate(91,146)"/>
<path d="M0 0 C2 1 2 1 2 1 Z " fill="#ffffff" transform="translate(197,143)"/>
<path d="M0 0 C2 1 2 1 2 1 Z " fill="#ffffff" transform="translate(633,142)"/>
<path d="M0 0 C2 1 2 1 2 1 Z " fill="#3F7F00" transform="translate(134,142)"/>
<path d="M0 0 C2 1 2 1 2 1 Z " fill="#0055BF" transform="translate(82,141)"/>
<path d="M0 0 C2 1 2 1 2 1 Z " fill="#00FFFF" transform="translate(191,140)"/>
<path d="M0 0 C2 1 2 1 2 1 Z " fill="#ffffff" transform="translate(139,139)"/>
<path d="M0 0 C2 1 2 1 2 1 Z " fill="#3FBF00" transform="translate(100,138)"/>
<path d="M0 0 C2 1 2 1 2 1 Z " fill="#55D400" transform="translate(144,136)"/>
<path d="M0 0 C2 1 2 1 2 1 Z " fill="#7F7F00" transform="translate(146,135)"/>
<path d="M0 0 C2 1 2 1 2 1 Z " fill="#ffffff" transform="translate(73,135)"/>
<path d="M0 0 C2 1 2 1 2 1 Z " fill="#007F7F" transform="translate(182,134)"/>
<path d="M0 0 C2 1 2 1 2 1 Z " fill="#007F7F" transform="translate(180,133)"/>
<path d="M0 0 C2 1 2 1 2 1 Z " fill="#ffffff" transform="translate(178,132)"/>
<path d="M0 0 C2 1 2 1 2 1 Z " fill="#7F7F00" transform="translate(153,131)"/>
<path d="M0 0 C2 1 2 1 2 1 Z " fill="#00BFBF" transform="translate(174,130)"/>
<path d="M0 0 C2 1 2 1 2 1 Z " fill="#007F7F" transform="translate(62,129)"/>
<path d="M0 0 C2 1 2 1 2 1 Z " fill="#ffffff" transform="translate(359,128)"/>
<path d="M0 0 C2 1 2 1 2 1 Z " fill="#ffffff" transform="translate(60,128)"/>
<path d="M0 0 C2 1 2 1 2 1 Z " fill="#002AAA" transform="translate(738,127)"/>
<path d="M0 0 C2 1 2 1 2 1 Z " fill="#ffffff" transform="translate(160,127)"/>
<path d="M0 0 C2 1 2 1 2 1 Z " fill="#7F7F00" transform="translate(102,126)"/>
<path d="M0 0 C2 1 2 1 2 1 Z " fill="#7FBF00" transform="translate(163,125)"/>
<path d="M0 0 C2 1 2 1 2 1 Z " fill="#7F7F00" transform="translate(104,125)"/>
<path d="M0 0 C2 1 2 1 2 1 Z " fill="#ffffff" transform="translate(285,124)"/>
<path d="M0 0 C2 1 2 1 2 1 Z " fill="#7F7F00" transform="translate(165,124)"/>
<path d="M0 0 C2 1 2 1 2 1 Z " fill="#ffffff" transform="translate(107,123)"/>
<path d="M0 0 C2 1 2 1 2 1 Z " fill="#00338C" transform="translate(82,123)"/>
<path d="M0 0 C2 1 2 1 2 1 Z " fill="#0033A5" transform="translate(76,123)"/>
<path d="M0 0 C2 1 2 1 2 1 Z " fill="#ffffff" transform="translate(623,122)"/>
<path d="M0 0 C2 1 2 1 2 1 Z " fill="#ffffff" transform="translate(169,122)"/>
<path d="M0 0 C2 1 2 1 2 1 Z " fill="#3F7F00" transform="translate(109,122)"/>
<path d="M0 0 C2 1 2 1 2 1 Z " fill="#003FFF" transform="translate(84,122)"/>
<path d="M0 0 C2 1 2 1 2 1 Z " fill="#007FAA" transform="translate(74,122)"/>
<path d="M0 0 C2 1 2 1 2 1 Z " fill="#ffffff" transform="translate(625,121)"/>
<path d="M0 0 C2 1 2 1 2 1 Z " fill="#BFBF00" transform="translate(172,120)"/>
<path d="M0 0 C2 1 2 1 2 1 Z " fill="#ffffff" transform="translate(46,120)"/>
<path d="M0 0 C2 1 2 1 2 1 Z " fill="#ffffff" transform="translate(174,119)"/>
<path d="M0 0 C2 1 2 1 2 1 Z " fill="#003F9F" transform="translate(44,119)"/>
<path d="M0 0 C2 1 2 1 2 1 Z " fill="#7F7F00" transform="translate(176,118)"/>
<path d="M0 0 C2 1 2 1 2 1 Z " fill="#003FBF" transform="translate(91,118)"/>
<path d="M0 0 C2 1 2 1 2 1 Z " fill="#003FFF" transform="translate(67,118)"/>
<path d="M0 0 C2 1 2 1 2 1 Z " fill="#338C00" transform="translate(118,117)"/>
<path d="M0 0 C2 1 2 1 2 1 Z " fill="#003F7F" transform="translate(95,116)"/>
<path d="M0 0 C2 1 2 1 2 1 Z " fill="#003F7F" transform="translate(62,115)"/>
<path d="M0 0 C2 1 2 1 2 1 Z " fill="#00007F" transform="translate(671,114)"/>
<path d="M0 0 C2 1 2 1 2 1 Z " fill="#7F7F00" transform="translate(183,114)"/>
<path d="M0 0 C2 1 2 1 2 1 Z " fill="#3F7F00" transform="translate(123,114)"/>
<path d="M0 0 C2 1 2 1 2 1 Z " fill="#003FBF" transform="translate(98,114)"/>
<path d="M0 0 C2 1 2 1 2 1 Z " fill="#003F7F" transform="translate(60,114)"/>
<path d="M0 0 C2 1 2 1 2 1 Z " fill="#ffffff" transform="translate(669,113)"/>
<path d="M0 0 C2 1 2 1 2 1 Z " fill="#ffffff" transform="translate(100,113)"/>
<path d="M0 0 C2 1 2 1 2 1 Z " fill="#ffffff" transform="translate(666,112)"/>
<path d="M0 0 C2 1 2 1 2 1 Z " fill="#ffffff" transform="translate(126,112)"/>
<path d="M0 0 C2 1 2 1 2 1 Z " fill="#7F7F00" transform="translate(128,111)"/>
<path d="M0 0 C2 1 2 1 2 1 Z " fill="#007F7F" transform="translate(103,111)"/>
<path d="M0 0 C2 1 2 1 2 1 Z " fill="#ffffff" transform="translate(49,111)"/>
<path d="M0 0 C2 1 2 1 2 1 Z " fill="#ffffff" transform="translate(663,110)"/>
<path d="M0 0 C2 1 2 1 2 1 Z " fill="#00557F" transform="translate(105,110)"/>
<path d="M0 0 C2 1 2 1 2 1 Z " fill="#ffffff" transform="translate(131,109)"/>
<path d="" fill="#003FBF" transform="translate(0,0)"/>
<path d="M0 0 C2 1 2 1 2 1 Z " fill="#ffffff" transform="translate(133,108)"/>
<path d="M0 0 C2 1 2 1 2 1 Z " fill="#00BFBF" transform="translate(108,108)"/>
<path d="M0 0 C2 1 2 1 2 1 Z " fill="#003F7F" transform="translate(110,107)"/>
<path d="M0 0 C2 1 2 1 2 1 Z " fill="#7F7F00" transform="translate(138,105)"/>
<path d="M0 0 C2 1 2 1 2 1 Z " fill="#7F7F00" transform="translate(140,104)"/>
<path d="M0 0 C2 1 2 1 2 1 Z " fill="#007FBF" transform="translate(115,104)"/>
<path d="M0 0 C2 1 2 1 2 1 Z " fill="#7F7F00" transform="translate(182,103)"/>
<path d="M0 0 C2 1 2 1 2 1 Z " fill="#002A7F" transform="translate(117,103)"/>
<path d="M0 0 C2 1 2 1 2 1 Z " fill="#ffffff" transform="translate(180,102)"/>
<path d="M0 0 C2 1 2 1 2 1 Z " fill="#BFBF00" transform="translate(178,101)"/>
<path d="M0 0 C2 1 2 1 2 1 Z " fill="#ffffff" transform="translate(145,101)"/>
<path d="M0 0 C2 1 2 1 2 1 Z " fill="#0055FF" transform="translate(120,101)"/>
<path d="" fill="#ffffff" transform="translate(0,0)"/>
<path d="M0 0 C2 1 2 1 2 1 Z " fill="#7F7F00" transform="translate(175,99)"/>
<path d="M0 0 C2 1 2 1 2 1 Z " fill="#ffffff" transform="translate(124,99)"/>
<path d="M0 0 C2 1 2 1 2 1 Z " fill="#FFFF00" transform="translate(152,97)"/>
<path d="M0 0 C2 1 2 1 2 1 Z " fill="#00BFBF" transform="translate(129,96)"/>
<path d="M0 0 C2 1 2 1 2 1 Z " fill="#559400" transform="translate(168,95)"/>
<path d="M0 0 C2 1 2 1 2 1 Z " fill="#00AABF" transform="translate(60,95)"/>
<path d="M0 0 C2 1 2 1 2 1 Z " fill="#ffffff" transform="translate(157,94)"/>
<path d="M0 0 C2 1 2 1 2 1 Z " fill="#ffffff" transform="translate(757,93)"/>
<path d="M0 0 C2 1 2 1 2 1 Z " fill="#009FDF" transform="translate(63,93)"/>
<path d="M0 0 C2 1 2 1 2 1 Z " fill="#ffffff" transform="translate(754,92)"/>
<path d="M0 0 C2 1 2 1 2 1 Z " fill="#004388" transform="translate(68,90)"/>
<path d="M0 0 C2 1 2 1 2 1 Z " fill="#00BFBF" transform="translate(132,85)"/>
<path d="M0 0 C2 1 2 1 2 1 Z " fill="#004C7F" transform="translate(130,84)"/>
<path d="M0 0 C2 1 2 1 2 1 Z " fill="#ffffff" transform="translate(291,83)"/>
<path d="M0 0 C2 1 2 1 2 1 Z " fill="#00BFFF" transform="translate(128,83)"/>
<path d="M0 0 C2 1 2 1 2 1 Z " fill="#ffffff" transform="translate(118,77)"/>
<path d="M0 0 C2 1 2 1 2 1 Z " fill="#007F7F" transform="translate(116,76)"/>
<path d="M0 0 C2 1 2 1 2 1 Z " fill="#00BFBF" transform="translate(161,75)"/>
<path d="M0 0 C2 1 2 1 2 1 Z " fill="#00BFBF" transform="translate(114,75)"/>
<path d="M0 0 C2 1 2 1 2 1 Z " fill="#009FBF" transform="translate(163,74)"/>
<path d="M0 0 C2 1 2 1 2 1 Z " fill="#ffffff" transform="translate(109,72)"/>
<path d="M0 0 C2 1 2 1 2 1 Z " fill="#ffffff" transform="translate(141,70)"/>
<path d="M0 0 C2 1 2 1 2 1 Z " fill="#ffffff" transform="translate(139,69)"/>
<path d="M0 0 C2 1 2 1 2 1 Z " fill="#0055D4" transform="translate(179,65)"/>
<path d="M0 0 C2 1 2 1 2 1 Z " fill="#007FBF" transform="translate(184,62)"/>
<path d="M0 0 C2 1 2 1 2 1 Z " fill="#ffffff" transform="translate(668,53)"/>
<path d="M0 0 C2 1 2 1 2 1 Z " fill="#ffffff" transform="translate(619,53)"/>
<path d="M0 0 C2 1 2 1 2 1 Z " fill="#ffffff" transform="translate(281,53)"/>
<path d="M0 0 C2 1 2 1 2 1 Z " fill="#ffffff" transform="translate(670,52)"/>
<path d="M0 0 C2 1 2 1 2 1 Z " fill="#ffffff" transform="translate(288,52)"/>
<path d="M0 0 C2 1 2 1 2 1 Z " fill="#ffffff" transform="translate(673,51)"/>
<path d="M0 0 C2 1 2 1 2 1 Z " fill="#0000FF" transform="translate(551,51)"/>
<path d="M0 0 C2 1 2 1 2 1 Z " fill="#ffffff" transform="translate(428,51)"/>
<path d="M0 0 C2 1 2 1 2 1 Z " fill="#003F7F" transform="translate(7,51)"/>
<path d="M0 0 C2 1 2 1 2 1 Z " fill="#ffffff" transform="translate(676,50)"/>
<path d="M0 0 C2 1 2 1 2 1 Z " fill="#ffffff" transform="translate(546,50)"/>
<path d="M0 0 C2 1 2 1 2 1 Z " fill="#ffffff" transform="translate(448,50)"/>
<path d="M0 0 C2 1 2 1 2 1 Z " fill="#ffffff" transform="translate(430,50)"/>
<path d="M0 0 C2 1 2 1 2 1 Z " fill="#ffffff" transform="translate(324,50)"/>
<path d="M0 0 C2 1 2 1 2 1 Z " fill="#ffffff" transform="translate(313,50)"/>
<path d="M0 0 C2 1 2 1 2 1 Z " fill="#002A7F" transform="translate(9,50)"/>
<path d="M0 0 C2 1 2 1 2 1 Z " fill="#003F7F" transform="translate(16,46)"/>
<path d="M0 0 C2 1 2 1 2 1 Z " fill="#0055FF" transform="translate(182,42)"/>
<path d="M0 0 C2 1 2 1 2 1 Z " fill="#003F7F" transform="translate(26,40)"/>
<path d="M0 0 C2 1 2 1 2 1 Z " fill="#ffffff" transform="translate(177,39)"/>
<path d="M0 0 C2 1 2 1 2 1 Z " fill="#007F7F" transform="translate(33,36)"/>
<path d="M0 0 C2 1 2 1 2 1 Z " fill="#003F7F" transform="translate(166,33)"/>
<path d="M0 0 C2 1 2 1 2 1 Z " fill="#ffffff" transform="translate(45,29)"/>
<path d="M0 0 C2 1 2 1 2 1 Z " fill="#ffffff" transform="translate(158,28)"/>
<path d="M0 0 C2 1 2 1 2 1 Z " fill="#ffffff" transform="translate(155,26)"/>
<path d="M0 0 C2 1 2 1 2 1 Z " fill="#ffffff" transform="translate(50,26)"/>
<path d="M0 0 C2 1 2 1 2 1 Z " fill="#002AD4" transform="translate(147,22)"/>
<path d="M0 0 C2 1 2 1 2 1 Z " fill="#007FBF" transform="translate(145,21)"/>
<path d="M0 0 C2 1 2 1 2 1 Z " fill="#002A7F" transform="translate(142,19)"/>
<path d="M0 0 C2 1 2 1 2 1 Z " fill="#00BFBF" transform="translate(63,19)"/>
<path d="M0 0 C2 1 2 1 2 1 Z " fill="#003FFF" transform="translate(140,18)"/>
<path d="M0 0 C2 1 2 1 2 1 Z " fill="#ffffff" transform="translate(66,17)"/>
<path d="M0 0 C2 1 2 1 2 1 Z " fill="#007FBF" transform="translate(68,16)"/>
<path d="M0 0 C2 1 2 1 2 1 Z " fill="#007F7F" transform="translate(133,14)"/>
<path d="M0 0 C2 1 2 1 2 1 Z " fill="#007FBF" transform="translate(78,10)"/>
<path d="M0 0 C2 1 2 1 2 1 Z " fill="#003F7F" transform="translate(119,6)"/>
<path d="M0 0 C2 1 2 1 2 1 Z " fill="#003F7F" transform="translate(85,6)"/>
<path d="M0 0 C2 1 2 1 2 1 Z " fill="#0055BF" transform="translate(117,5)"/>
<path d="M0 0 C2 1 2 1 2 1 Z " fill="#007FFF" transform="translate(87,5)"/>
<path d="M0 0 C2 1 2 1 2 1 Z " fill="#00BFBF" transform="translate(115,4)"/>
<path d="M0 0 C2 1 2 1 2 1 Z " fill="#00557F" transform="translate(90,3)"/>
<path d="M0 0 C2 1 2 1 2 1 Z " fill="#003FFF" transform="translate(112,2)"/>
<path d="M0 0 C2 1 2 1 2 1 Z " fill="#007FFF" transform="translate(92,2)"/>
<path d="M0 0 C2 1 2 1 2 1 Z " fill="#007F7F" transform="translate(110,1)"/>
<path d="" fill="#007F7F" transform="translate(0,0)"/>
<path d="" fill="#00FFFF" transform="translate(0,0)"/>
<path d="" fill="#003F7F" transform="translate(0,0)"/>
<path d="" fill="#00007F" transform="translate(0,0)"/>
<path d="" fill="#007FFF" transform="translate(0,0)"/>
<path d="" fill="#003F7F" transform="translate(0,0)"/>
<path d="" fill="#ffffff" transform="translate(0,0)"/>
<path d="" fill="#003F7F" transform="translate(0,0)"/>
<path d="" fill="#0055FF" transform="translate(0,0)"/>
<path d="" fill="#ffffff" transform="translate(0,0)"/>
<path d="" fill="#003366" transform="translate(0,0)"/>
<path d="" fill="#007FFF" transform="translate(0,0)"/>
<path d="" fill="#007FFF" transform="translate(0,0)"/>
<path d="" fill="#0055AA" transform="translate(0,0)"/>
<path d="" fill="#00FFFF" transform="translate(0,0)"/>
<path d="" fill="#ffffff" transform="translate(0,0)"/>
<path d="" fill="#ffffff" transform="translate(0,0)"/>
<path d="" fill="#00007F" transform="translate(0,0)"/>
<path d="" fill="#ffffff" transform="translate(0,0)"/>
<path d="" fill="#ffffff" transform="translate(0,0)"/>
<path d="" fill="#ffffff" transform="translate(0,0)"/>
<path d="" fill="#007F7F" transform="translate(0,0)"/>
<path d="" fill="#007FFF" transform="translate(0,0)"/>
<path d="" fill="#007F7F" transform="translate(0,0)"/>
<path d="" fill="#0000FF" transform="translate(0,0)"/>
<path d="" fill="#ffffff" transform="translate(0,0)"/>
<path d="" fill="#ffffff" transform="translate(0,0)"/>
<path d="" fill="#00FFFF" transform="translate(0,0)"/>
<path d="" fill="#ffffff" transform="translate(0,0)"/>
<path d="" fill="#ffffff" transform="translate(0,0)"/>
<path d="" fill="#00007F" transform="translate(0,0)"/>
<path d="" fill="#0055AA" transform="translate(0,0)"/>
<path d="" fill="#ffffff" transform="translate(0,0)"/>
<path d="" fill="#ffffff" transform="translate(0,0)"/>
<path d="" fill="#ffffff" transform="translate(0,0)"/>
<path d="" fill="#ffffff" transform="translate(0,0)"/>
<path d="" fill="#ffffff" transform="translate(0,0)"/>
<path d="" fill="#ffffff" transform="translate(0,0)"/>
<path d="" fill="#ffffff" transform="translate(0,0)"/>
<path d="" fill="#00007F" transform="translate(0,0)"/>
<path d="" fill="#ffffff" transform="translate(0,0)"/>
<path d="" fill="#00007F" transform="translate(0,0)"/>
<path d="" fill="#ffffff" transform="translate(0,0)"/>
<path d="" fill="#ffffff" transform="translate(0,0)"/>
<path d="" fill="#ffffff" transform="translate(0,0)"/>
<path d="" fill="#007F7F" transform="translate(0,0)"/>
<path d="" fill="#0000FF" transform="translate(0,0)"/>
<path d="" fill="#ffffff" transform="translate(0,0)"/>
<path d="" fill="#00007F" transform="translate(0,0)"/>
<path d="" fill="#ffffff" transform="translate(0,0)"/>
<path d="" fill="#ffffff" transform="translate(0,0)"/>
<path d="" fill="#ffffff" transform="translate(0,0)"/>
<path d="" fill="#ffffff" transform="translate(0,0)"/>
<path d="" fill="#ffffff" transform="translate(0,0)"/>
<path d="" fill="#00007F" transform="translate(0,0)"/>
<path d="" fill="#ffffff" transform="translate(0,0)"/>
<path d="" fill="#ffffff" transform="translate(0,0)"/>
<path d="" fill="#00007F" transform="translate(0,0)"/>
<path d="" fill="#ffffff" transform="translate(0,0)"/>
<path d="" fill="#ffffff" transform="translate(0,0)"/>
<path d="" fill="#ffffff" transform="translate(0,0)"/>
<path d="" fill="#ffffff" transform="translate(0,0)"/>
<path d="" fill="#ffffff" transform="translate(0,0)"/>
<path d="" fill="#ffffff" transform="translate(0,0)"/>
<path d="" fill="#007F7F" transform="translate(0,0)"/>
<path d="" fill="#003F7F" transform="translate(0,0)"/>
<path d="" fill="#ffffff" transform="translate(0,0)"/>
<path d="" fill="#ffffff" transform="translate(0,0)"/>
<path d="" fill="#ffffff" transform="translate(0,0)"/>
<path d="" fill="#0000FF" transform="translate(0,0)"/>
<path d="" fill="#ffffff" transform="translate(0,0)"/>
<path d="" fill="#ffffff" transform="translate(0,0)"/>
<path d="" fill="#ffffff" transform="translate(0,0)"/>
<path d="" fill="#00007F" transform="translate(0,0)"/>
<path d="" fill="#ffffff" transform="translate(0,0)"/>
<path d="" fill="#007FFF" transform="translate(0,0)"/>
<path d="" fill="#ffffff" transform="translate(0,0)"/>
<path d="" fill="#ffffff" transform="translate(0,0)"/>
<path d="" fill="#ffffff" transform="translate(0,0)"/>
<path d="" fill="#ffffff" transform="translate(0,0)"/>
<path d="" fill="#ffffff" transform="translate(0,0)"/>
<path d="" fill="#ffffff" transform="translate(0,0)"/>
<path d="" fill="#ffffff" transform="translate(0,0)"/>
<path d="" fill="#ffffff" transform="translate(0,0)"/>
<path d="" fill="#ffffff" transform="translate(0,0)"/>
<path d="" fill="#ffffff" transform="translate(0,0)"/>
<path d="" fill="#ffffff" transform="translate(0,0)"/>
<path d="" fill="#00AAAA" transform="translate(0,0)"/>
<path d="" fill="#ffffff" transform="translate(0,0)"/>
<path d="" fill="#ffffff" transform="translate(0,0)"/>
<path d="" fill="#00007F" transform="translate(0,0)"/>
<path d="" fill="#00FFFF" transform="translate(0,0)"/>
<path d="" fill="#ffffff" transform="translate(0,0)"/>
<path d="" fill="#7F7F00" transform="translate(0,0)"/>
<path d="" fill="#ffffff" transform="translate(0,0)"/>
<path d="" fill="#007F7F" transform="translate(0,0)"/>
<path d="" fill="#ffffff" transform="translate(0,0)"/>
<path d="" fill="#ffffff" transform="translate(0,0)"/>
<path d="" fill="#55AA55" transform="translate(0,0)"/>
<path d="" fill="#00007F" transform="translate(0,0)"/>
<path d="" fill="#ffffff" transform="translate(0,0)"/>
<path d="" fill="#007F7F" transform="translate(0,0)"/>
<path d="" fill="#ffffff" transform="translate(0,0)"/>
<path d="" fill="#00FFFF" transform="translate(0,0)"/>
<path d="" fill="#ffffff" transform="translate(0,0)"/>
<path d="" fill="#ffffff" transform="translate(0,0)"/>
<path d="" fill="#007F00" transform="translate(0,0)"/>
<path d="" fill="#ffffff" transform="translate(0,0)"/>
<path d="" fill="#00FFFF" transform="translate(0,0)"/>
<path d="" fill="#ffffff" transform="translate(0,0)"/>
<path d="" fill="#007FFF" transform="translate(0,0)"/>
<path d="" fill="#ffffff" transform="translate(0,0)"/>
<path d="" fill="#00FFFF" transform="translate(0,0)"/>
<path d="" fill="#007FBF" transform="translate(0,0)"/>
<path d="" fill="#ffffff" transform="translate(0,0)"/>
<path d="" fill="#ffffff" transform="translate(0,0)"/>
<path d="" fill="#007F00" transform="translate(0,0)"/>
<path d="" fill="#ffffff" transform="translate(0,0)"/>
<path d="" fill="#00FFFF" transform="translate(0,0)"/>
<path d="" fill="#ffffff" transform="translate(0,0)"/>
<path d="" fill="#007FBF" transform="translate(0,0)"/>
<path d="" fill="#ffffff" transform="translate(0,0)"/>
<path d="" fill="#ffffff" transform="translate(0,0)"/>
<path d="" fill="#ffffff" transform="translate(0,0)"/>
<path d="" fill="#ffffff" transform="translate(0,0)"/>
<path d="" fill="#ffffff" transform="translate(0,0)"/>
<path d="" fill="#ffffff" transform="translate(0,0)"/>
<path d="" fill="#ffffff" transform="translate(0,0)"/>
<path d="" fill="#ffffff" transform="translate(0,0)"/>
<path d="" fill="#ffffff" transform="translate(0,0)"/>
<path d="" fill="#ffffff" transform="translate(0,0)"/>
<path d="" fill="#ffffff" transform="translate(0,0)"/>
<path d="" fill="#ffffff" transform="translate(0,0)"/>
<path d="" fill="#00007F" transform="translate(0,0)"/>
<path d="" fill="#007F7F" transform="translate(0,0)"/>
<path d="" fill="#ffffff" transform="translate(0,0)"/>
<path d="" fill="#ffffff" transform="translate(0,0)"/>
<path d="" fill="#ffffff" transform="translate(0,0)"/>
<path d="" fill="#ffffff" transform="translate(0,0)"/>
<path d="" fill="#007F00" transform="translate(0,0)"/>
<path d="" fill="#ffffff" transform="translate(0,0)"/>
<path d="" fill="#00FFFF" transform="translate(0,0)"/>
<path d="" fill="#ffffff" transform="translate(0,0)"/>
<path d="" fill="#007FFF" transform="translate(0,0)"/>
<path d="" fill="#ffffff" transform="translate(0,0)"/>
<path d="" fill="#0000FF" transform="translate(0,0)"/>
<path d="" fill="#ffffff" transform="translate(0,0)"/>
<path d="" fill="#ffffff" transform="translate(0,0)"/>
<path d="" fill="#0000FF" transform="translate(0,0)"/>
<path d="" fill="#ffffff" transform="translate(0,0)"/>
<path d="" fill="#00007F" transform="translate(0,0)"/>
<path d="" fill="#ffffff" transform="translate(0,0)"/>
<path d="" fill="#ffffff" transform="translate(0,0)"/>
<path d="" fill="#ffffff" transform="translate(0,0)"/>
<path d="" fill="#ffffff" transform="translate(0,0)"/>
<path d="" fill="#55AA00" transform="translate(0,0)"/>
<path d="" fill="#ffffff" transform="translate(0,0)"/>
<path d="" fill="#ffffff" transform="translate(0,0)"/>
<path d="" fill="#007F00" transform="translate(0,0)"/>
<path d="" fill="#003366" transform="translate(0,0)"/>
<path d="" fill="#55AA00" transform="translate(0,0)"/>
<path d="" fill="#ffffff" transform="translate(0,0)"/>
<path d="" fill="#ffffff" transform="translate(0,0)"/>
<path d="" fill="#007F00" transform="translate(0,0)"/>
<path d="" fill="#003F7F" transform="translate(0,0)"/>
<path d="" fill="#003F7F" transform="translate(0,0)"/>
<path d="" fill="#007F7F" transform="translate(0,0)"/>
<path d="" fill="#00007F" transform="translate(0,0)"/>
<path d="" fill="#00007F" transform="translate(0,0)"/>
<path d="" fill="#7FFF00" transform="translate(0,0)"/>
<path d="" fill="#ffffff" transform="translate(0,0)"/>
<path d="" fill="#55AA00" transform="translate(0,0)"/>
<path d="" fill="#ffffff" transform="translate(0,0)"/>
<path d="" fill="#0055AA" transform="translate(0,0)"/>
<path d="" fill="#003F7F" transform="translate(0,0)"/>
<path d="" fill="#ffffff" transform="translate(0,0)"/>
<path d="" fill="#ffffff" transform="translate(0,0)"/>
<path d="" fill="#ffffff" transform="translate(0,0)"/>
<path d="" fill="#ffffff" transform="translate(0,0)"/>
<path d="" fill="#00007F" transform="translate(0,0)"/>
<path d="" fill="#ffffff" transform="translate(0,0)"/>
<path d="" fill="#0055AA" transform="translate(0,0)"/>
<path d="" fill="#ffffff" transform="translate(0,0)"/>
<path d="" fill="#ffffff" transform="translate(0,0)"/>
<path d="" fill="#ffffff" transform="translate(0,0)"/>
<path d="" fill="#0033CC" transform="translate(0,0)"/>
<path d="" fill="#ffffff" transform="translate(0,0)"/>
<path d="" fill="#0055AA" transform="translate(0,0)"/>
<path d="" fill="#ffffff" transform="translate(0,0)"/>
<path d="" fill="#0000AA" transform="translate(0,0)"/>
<path d="" fill="#ffffff" transform="translate(0,0)"/>
<path d="" fill="#ffffff" transform="translate(0,0)"/>
<path d="" fill="#00007F" transform="translate(0,0)"/>
<path d="" fill="#007F7F" transform="translate(0,0)"/>
<path d="" fill="#ffffff" transform="translate(0,0)"/>
<path d="" fill="#0000FF" transform="translate(0,0)"/>
<path d="" fill="#00007F" transform="translate(0,0)"/>
<path d="" fill="#ffffff" transform="translate(0,0)"/>
<path d="" fill="#ffffff" transform="translate(0,0)"/>
<path d="" fill="#ffffff" transform="translate(0,0)"/>
<path d="" fill="#ffffff" transform="translate(0,0)"/>
<path d="" fill="#ffffff" transform="translate(0,0)"/>
<path d="" fill="#7F7F00" transform="translate(0,0)"/>
<path d="" fill="#FFFF00" transform="translate(0,0)"/>
<path d="" fill="#007F00" transform="translate(0,0)"/>
<path d="" fill="#ffffff" transform="translate(0,0)"/>
<path d="" fill="#7F7F00" transform="translate(0,0)"/>
<path d="" fill="#007FFF" transform="translate(0,0)"/>
<path d="" fill="#ffffff" transform="translate(0,0)"/>
<path d="" fill="#7F7F00" transform="translate(0,0)"/>
<path d="" fill="#ffffff" transform="translate(0,0)"/>
<path d="" fill="#007F7F" transform="translate(0,0)"/>
<path d="" fill="#ffffff" transform="translate(0,0)"/>
<path d="" fill="#00007F" transform="translate(0,0)"/>
<path d="" fill="#55AA00" transform="translate(0,0)"/>
<path d="" fill="#007FBF" transform="translate(0,0)"/>
<path d="" fill="#00007F" transform="translate(0,0)"/>
<path d="" fill="#00AAFF" transform="translate(0,0)"/>
<path d="" fill="#ffffff" transform="translate(0,0)"/>
<path d="" fill="#ffffff" transform="translate(0,0)"/>
<path d="" fill="#003F7F" transform="translate(0,0)"/>
<path d="" fill="#ffffff" transform="translate(0,0)"/>
<path d="" fill="#004891" transform="translate(0,0)"/>
<path d="" fill="#0000FF" transform="translate(0,0)"/>
<path d="" fill="#ffffff" transform="translate(0,0)"/>
<path d="" fill="#ffffff" transform="translate(0,0)"/>
<path d="" fill="#ffffff" transform="translate(0,0)"/>
<path d="" fill="#ffffff" transform="translate(0,0)"/>
<path d="" fill="#003366" transform="translate(0,0)"/>
<path d="" fill="#ffffff" transform="translate(0,0)"/>
<path d="" fill="#003F7F" transform="translate(0,0)"/>
<path d="" fill="#ffffff" transform="translate(0,0)"/>
<path d="" fill="#ffffff" transform="translate(0,0)"/>
<path d="" fill="#00007F" transform="translate(0,0)"/>
<path d="" fill="#ffffff" transform="translate(0,0)"/>
<path d="" fill="#00007F" transform="translate(0,0)"/>
<path d="" fill="#007F7F" transform="translate(0,0)"/>
<path d="" fill="#00FFFF" transform="translate(0,0)"/>
<path d="" fill="#007FBF" transform="translate(0,0)"/>
<path d="" fill="#ffffff" transform="translate(0,0)"/>
<path d="" fill="#00FFFF" transform="translate(0,0)"/>
<path d="" fill="#00007F" transform="translate(0,0)"/>
<path d="" fill="#ffffff" transform="translate(0,0)"/>
<path d="" fill="#00AAFF" transform="translate(0,0)"/>
<path d="" fill="#00007F" transform="translate(0,0)"/>
<path d="" fill="#ffffff" transform="translate(0,0)"/>
<path d="" fill="#ffffff" transform="translate(0,0)"/>
<path d="" fill="#ffffff" transform="translate(0,0)"/>
<path d="" fill="#ffffff" transform="translate(0,0)"/>
<path d="" fill="#ffffff" transform="translate(0,0)"/>
<path d="" fill="#ffffff" transform="translate(0,0)"/>
<path d="" fill="#ffffff" transform="translate(0,0)"/>
<path d="" fill="#ffffff" transform="translate(0,0)"/>
<path d="" fill="#ffffff" transform="translate(0,0)"/>
<path d="" fill="#ffffff" transform="translate(0,0)"/>
<path d="" fill="#ffffff" transform="translate(0,0)"/>
<path d="" fill="#0055AA" transform="translate(0,0)"/>
<path d="" fill="#ffffff" transform="translate(0,0)"/>
<path d="" fill="#00007F" transform="translate(0,0)"/>
<path d="" fill="#ffffff" transform="translate(0,0)"/>
<path d="" fill="#ffffff" transform="translate(0,0)"/>
<path d="" fill="#ffffff" transform="translate(0,0)"/>
<path d="" fill="#ffffff" transform="translate(0,0)"/>
<path d="" fill="#ffffff" transform="translate(0,0)"/>
<path d="" fill="#ffffff" transform="translate(0,0)"/>
<path d="" fill="#ffffff" transform="translate(0,0)"/>
<path d="" fill="#ffffff" transform="translate(0,0)"/>
<path d="" fill="#ffffff" transform="translate(0,0)"/>
<path d="" fill="#00007F" transform="translate(0,0)"/>
<path d="" fill="#ffffff" transform="translate(0,0)"/>
<path d="" fill="#ffffff" transform="translate(0,0)"/>
<path d="" fill="#ffffff" transform="translate(0,0)"/>
<path d="" fill="#ffffff" transform="translate(0,0)"/>
<path d="" fill="#ffffff" transform="translate(0,0)"/>
<path d="" fill="#00007F" transform="translate(0,0)"/>
<path d="" fill="#ffffff" transform="translate(0,0)"/>
<path d="" fill="#ffffff" transform="translate(0,0)"/>
<path d="" fill="#00007F" transform="translate(0,0)"/>
<path d="" fill="#ffffff" transform="translate(0,0)"/>
<path d="" fill="#ffffff" transform="translate(0,0)"/>
<path d="" fill="#ffffff" transform="translate(0,0)"/>
<path d="" fill="#ffffff" transform="translate(0,0)"/>
<path d="" fill="#00007F" transform="translate(0,0)"/>
<path d="" fill="#ffffff" transform="translate(0,0)"/>
<path d="" fill="#00007F" transform="translate(0,0)"/>
<path d="" fill="#ffffff" transform="translate(0,0)"/>
<path d="" fill="#ffffff" transform="translate(0,0)"/>
<path d="" fill="#ffffff" transform="translate(0,0)"/>
<path d="" fill="#0000FF" transform="translate(0,0)"/>
<path d="" fill="#ffffff" transform="translate(0,0)"/>
<path d="" fill="#ffffff" transform="translate(0,0)"/>
<path d="" fill="#ffffff" transform="translate(0,0)"/>
<path d="" fill="#ffffff" transform="translate(0,0)"/>
<path d="" fill="#ffffff" transform="translate(0,0)"/>
<path d="" fill="#ffffff" transform="translate(0,0)"/>
<path d="" fill="#ffffff" transform="translate(0,0)"/>
<path d="" fill="#ffffff" transform="translate(0,0)"/>
<path d="" fill="#ffffff" transform="translate(0,0)"/>
<path d="" fill="#ffffff" transform="translate(0,0)"/>
<path d="" fill="#ffffff" transform="translate(0,0)"/>
<path d="" fill="#ffffff" transform="translate(0,0)"/>
<path d="" fill="#007FFF" transform="translate(0,0)"/>
<path d="" fill="#007FFF" transform="translate(0,0)"/>
<path d="" fill="#0000FF" transform="translate(0,0)"/>
<path d="" fill="#0055AA" transform="translate(0,0)"/>
<path d="" fill="#ffffff" transform="translate(0,0)"/>
<path d="" fill="#00007F" transform="translate(0,0)"/>
<path d="" fill="#ffffff" transform="translate(0,0)"/>
<path d="" fill="#ffffff" transform="translate(0,0)"/>
<path d="" fill="#ffffff" transform="translate(0,0)"/>
<path d="" fill="#ffffff" transform="translate(0,0)"/>
<path d="" fill="#ffffff" transform="translate(0,0)"/>
<path d="" fill="#007FFF" transform="translate(0,0)"/>
<path d="" fill="#007FFF" transform="translate(0,0)"/>
<path d="" fill="#ffffff" transform="translate(0,0)"/>
<path d="" fill="#ffffff" transform="translate(0,0)"/>
<path d="" fill="#ffffff" transform="translate(0,0)"/>
<path d="" fill="#ffffff" transform="translate(0,0)"/>
<path d="" fill="#00007F" transform="translate(0,0)"/>
<path d="" fill="#ffffff" transform="translate(0,0)"/>
<path d="" fill="#ffffff" transform="translate(0,0)"/>
<path d="" fill="#ffffff" transform="translate(0,0)"/>
<path d="" fill="#ffffff" transform="translate(0,0)"/>
<path d="" fill="#0000FF" transform="translate(0,0)"/>
<path d="" fill="#ffffff" transform="translate(0,0)"/>
<path d="" fill="#ffffff" transform="translate(0,0)"/>
<path d="" fill="#007FFF" transform="translate(0,0)"/>
<path d="" fill="#007FFF" transform="translate(0,0)"/>
<path d="" fill="#007FBF" transform="translate(0,0)"/>
<path d="" fill="#003366" transform="translate(0,0)"/>
<path d="" fill="#007FFF" transform="translate(0,0)"/>
<path d="" fill="#007FFF" transform="translate(0,0)"/>
<path d="" fill="#ffffff" transform="translate(0,0)"/>
<path d="" fill="#ffffff" transform="translate(0,0)"/>
<path d="" fill="#00FFFF" transform="translate(0,0)"/>
<path d="" fill="#ffffff" transform="translate(0,0)"/>
<path d="" fill="#00FFFF" transform="translate(0,0)"/>
<path d="" fill="#00FFFF" transform="translate(0,0)"/>
<path d="" fill="#007F7F" transform="translate(0,0)"/>
<path d="" fill="#0055AA" transform="translate(0,0)"/>
<path d="" fill="#007F7F" transform="translate(0,0)"/>
</svg>
